SplineFontDB: 3.0
FontName: BoonTook-Ultra
FullName: BoonTook Ultra
FamilyName: BoonTook Ultra
Weight: Ultra
Copyright: Copyright (c) 2014, Sungsit Sawaiwan (sungsit.com | https://twitter.com/gzix), with Reserved Font Names "BoonTook".
Version: 1.0-beta1
ItalicAngle: 0
UnderlinePosition: -60
UnderlineWidth: 60
Ascent: 960
Descent: 240
woffMajor: 1
woffMinor: 0
LayerCount: 2
Layer: 0 0 "Back"  1
Layer: 1 0 "Fore"  0
FSType: 8
OS2Version: 0
OS2_WeightWidthSlopeOnly: 0
OS2_UseTypoMetrics: 0
CreationTime: 1394017292
ModificationTime: 1414533018
PfmFamily: 33
TTFWeight: 950
TTFWidth: 5
LineGap: 0
VLineGap: 0
Panose: 2 1 1 5 5 0 0 0 0 0
OS2TypoAscent: 1240
OS2TypoAOffset: 0
OS2TypoDescent: -480
OS2TypoDOffset: 0
OS2TypoLinegap: 0
OS2WinAscent: 1240
OS2WinAOffset: 0
OS2WinDescent: 480
OS2WinDOffset: 0
HheadAscent: 1240
HheadAOffset: 0
HheadDescent: -480
HheadDOffset: 0
OS2FamilyClass: 2048
OS2Vendor: 'BUni'
Lookup: 1 0 0 "'aalt' Latin Access All Alternates"  {"'aalt' Latin Access All Alternates" ("alt" ) } ['aalt' ('DFLT' <'dflt' > 'latn' <'dflt' > ) ]
Lookup: 1 0 0 "'ss18' Latin g alt"  {"'ss18' Latin g alt"  } ['ss18' ('DFLT' <'dflt' > 'latn' <'dflt' > 'thai' <'PAL ' 'SAN ' 'THA ' 'dflt' > ) ]
Lookup: 1 0 0 "'ss19' Latin a alt"  {"'ss19' Latin a alt"  } ['ss19' ('DFLT' <'dflt' > 'latn' <'dflt' > 'thai' <'PAL ' 'SAN ' 'THA ' 'dflt' > ) ]
Lookup: 1 0 0 "'ss20' Latin a & g alt"  {"'ss20' Latin a & g alt" ("alt" ) } ['ss20' ('DFLT' <'dflt' > 'latn' <'dflt' > 'thai' <'PAL ' 'SAN ' 'THA ' 'dflt' > ) ]
Lookup: 1 0 0 "'locl' Localized Thai-Sanskrit"  {"'locl' Localized Thai-Sanskrit" ("descless" ) } ['ccmp' ('latn' <' SAN' 'PAL ' > 'thai' <'PAL ' 'SAN ' > ) 'locl' ('latn' <' SAN' 'PAL ' > 'thai' <'PAL ' 'SAN ' > ) 'salt' ('DFLT' <'dflt' > 'latn' <'dflt' > 'thai' <'PAL ' 'SAN ' 'THA ' 'dflt' > ) 'ss01' ('DFLT' <'dflt' > 'latn' <'dflt' > 'thai' <'PAL ' 'SAN ' 'THA ' 'dflt' > ) ]

StartChar: uni0E2D
Encoding: 3629 3629 0
Width: 730
VWidth: 0
Flags: W
HStem: -20 180<290.608 401.968> 230 110<275 320> 440 180<156.156 379.095>
VStem: 430 270<186.975 388.825>
LayerCount: 2
Fore
SplineSet
30 260 m 0
 30 305 52 340 90 340 c 2
 320 340 l 1
 320 230 l 1
 275 230 l 1
 275 182 310 160 350 160 c 0
 408 160 430 210 430 300 c 0
 430 400 370 440 280 440 c 0
 208 440 144 416 100 400 c 1
 40 550 l 1
 40 550 158 620 360 620 c 0
 574 620 700 497 700 300 c 0
 700 123 564 -20 350 -20 c 0
 168 -20 30 70 30 260 c 0
EndSplineSet
Colour: ffff00
EndChar

StartChar: uni0E01
Encoding: 3585 3585 1
Width: 770
VWidth: 0
Flags: W
HStem: 0 21G<90 360 460 730> 440 180<323.782 448.219>
VStem: 90 270<0 396.062> 460 270<0 428.402>
LayerCount: 2
Fore
SplineSet
20 520 m 1
 20 520 178 620 380 620 c 0
 594 620 730 536 730 370 c 2
 730 0 l 1
 460 0 l 1
 460 370 l 2
 460 418 438 440 380 440 c 0
 367 440 346 439 322 436 c 1
 343 420 360 394 360 360 c 2
 360 0 l 1
 90 0 l 1
 90 370 l 2
 90 389 86 396 79 397 c 1
 69 395 59 392 50 390 c 1
 20 520 l 1
EndSplineSet
Colour: ffff00
EndChar

StartChar: uni0E17
Encoding: 3607 3607 2
Width: 775
VWidth: 0
Flags: W
HStem: 0 21G<50 330 450 730> 400 210<382.5 574.5> 580 20G<50 310>
VStem: 50 280<0 380.77> 450 280<0 393.505>
LayerCount: 2
Fore
SplineSet
50 0 m 1xd8
 50 600 l 1
 310 600 l 1xb8
 310 498 l 1
 338 544 397 610 510 610 c 0
 639 610 730 526 730 380 c 2
 730 0 l 1
 450 0 l 1
 450 320 l 2
 450 381 434 400 400 400 c 0
 365 400 343 374 330 333 c 1
 330 0 l 1
 50 0 l 1xd8
EndSplineSet
Colour: ffff00
EndChar

StartChar: uni0E19
Encoding: 3609 3609 3
Width: 775
VWidth: 0
Flags: W
HStem: -10 210<200.5 392.5> 0 21G<465 725> 580 20G<45 325 445 725>
VStem: 45 280<206.495 600> 445 280<219.23 600>
LayerCount: 2
Fore
SplineSet
725 600 m 1xb8
 725 0 l 1
 465 0 l 1x78
 465 102 l 1
 437 56 378 -10 265 -10 c 0
 136 -10 45 74 45 220 c 2
 45 600 l 1
 325 600 l 1
 325 280 l 2
 325 219 341 200 375 200 c 0
 410 200 432 226 445 267 c 1
 445 600 l 1
 725 600 l 1xb8
EndSplineSet
Colour: ffff00
EndChar

StartChar: uni0E21
Encoding: 3617 3617 4
Width: 775
VWidth: 0
Flags: W
HStem: -10 210<382.5 574.5> 0 21G<50 310> 580 20G<50 330 450 730>
VStem: 50 280<219.23 600> 450 280<206.495 600>
LayerCount: 2
Fore
SplineSet
50 0 m 1x78
 50 600 l 1
 330 600 l 1
 330 267 l 1
 343 226 365 200 400 200 c 0
 434 200 450 219 450 280 c 2
 450 600 l 1
 730 600 l 1
 730 220 l 2
 730 74 639 -10 510 -10 c 0xb8
 397 -10 338 56 310 102 c 1
 310 0 l 1
 50 0 l 1x78
EndSplineSet
Colour: ffff00
EndChar

StartChar: uni0E1A
Encoding: 3610 3610 5
Width: 790
VWidth: 0
Flags: W
HStem: -20 190<336.671 453.329> 580 20G<45 325 465 745>
VStem: 45 280<185.476 600> 465 280<185.476 600>
LayerCount: 2
Fore
SplineSet
45 230 m 2
 45 600 l 1
 325 600 l 1
 325 240 l 2
 325 192 351 170 395 170 c 0
 439 170 465 192 465 240 c 2
 465 600 l 1
 745 600 l 1
 745 230 l 2
 745 64 609 -20 395 -20 c 0
 181 -20 45 64 45 230 c 2
EndSplineSet
Colour: ffff00
EndChar

StartChar: uni0E1B
Encoding: 3611 3611 6
Width: 820
VWidth: 0
Flags: W
HStem: -20 190<341.965 468.035> 580 20G<45 325> 820 20G<485 765>
VStem: 45 280<185.476 600> 485 280<185.476 840>
AnchorPoint: "th-vow-above" 480 660 basechar 0
LayerCount: 2
Fore
SplineSet
45 230 m 2
 45 600 l 1
 325 600 l 1
 325 240 l 2
 325 192 356 170 405 170 c 0
 454 170 485 192 485 240 c 2
 485 840 l 1
 765 840 l 1
 765 230 l 2
 765 64 624 -20 405 -20 c 0
 186 -20 45 64 45 230 c 2
EndSplineSet
Colour: ffff00
EndChar

StartChar: uni0E04
Encoding: 3588 3588 7
Width: 780
VWidth: 0
Flags: W
HStem: 0 21G<40 310 470 740> 165 175<329.086 419.578> 430 190<328.364 451.636>
VStem: 40 270<0 149.397 290 414.524> 470 270<0 414.524>
LayerCount: 2
Fore
SplineSet
40 0 m 1
 40 370 l 2
 40 536 176 620 390 620 c 0
 604 620 740 536 740 370 c 2
 740 0 l 1
 470 0 l 1
 470 360 l 2
 470 408 434 430 390 430 c 0
 346 430 310 408 310 360 c 2
 310 290 l 1
 328 317 351 340 380 340 c 0
 402 340 410 335 420 330 c 1
 420 160 l 1
 412 162 401 165 385 165 c 0
 351 165 324 145 310 124 c 1
 310 0 l 1
 40 0 l 1
EndSplineSet
Colour: ffff00
EndChar

StartChar: uni0E05
Encoding: 3589 3589 8
Width: 780
VWidth: 0
Flags: W
HStem: 0 21G<40 310 470 740> 165 175<329.086 419.578> 600 20G<197.5 248.5 531.5 582.5>
VStem: 40 270<0 149.397 290 416.643> 470 270<0 416.643>
LayerCount: 2
Fore
SplineSet
40 0 m 1
 40 390 l 2
 40 536 155 620 240 620 c 0
 257 620 390 530 390 530 c 1
 390 530 523 620 540 620 c 0
 625 620 740 536 740 390 c 2
 740 0 l 1
 470 0 l 1
 470 370 l 2
 470 406 450 420 450 420 c 1
 400 380 l 1
 390 380 l 1
 380 380 l 1
 330 420 l 1
 330 420 310 406 310 370 c 2
 310 290 l 1
 328 317 351 340 380 340 c 0
 402 340 410 335 420 330 c 1
 420 160 l 1
 412 162 401 165 385 165 c 0
 351 165 324 145 310 124 c 1
 310 0 l 1
 40 0 l 1
EndSplineSet
Colour: ffff00
EndChar

StartChar: uni0E02
Encoding: 3586 3586 9
Width: 755
VWidth: 0
Flags: W
HStem: -20 180<330.999 429.001> 580 20G<50 304 440 710>
VStem: 50 330<421.878 565.391> 50 270<169.141 335.164> 440 270<168.809 600>
LayerCount: 2
Fore
SplineSet
50 220 m 0xd8
 50 338 130 420 130 420 c 1
 50 420 l 1
 50 600 l 1xd8
 260 600 l 2
 348 600 380 553 380 480 c 0xe8
 380 397 320 317 320 220 c 0xd8
 320 178 346 160 380 160 c 0
 414 160 440 177 440 220 c 2
 440 600 l 1
 710 600 l 1
 710 220 l 2
 710 54 581 -20 380 -20 c 0xe8
 179 -20 50 60 50 220 c 0xd8
EndSplineSet
Colour: ffff00
EndChar

StartChar: uni0E03
Encoding: 3587 3587 10
Width: 765
VWidth: 0
Flags: W
HStem: -20 180<340.999 439.001> 450 160<157.194 273.498> 580 20G<450 720>
VStem: 60 270<168.228 298.742> 190 220<386.035 516.5> 450 270<168.809 600>
LayerCount: 2
Fore
SplineSet
20 450 m 1xcc
 20 610 l 1
 30 610 l 1
 130 550 l 1
 150 570 196 610 270 610 c 0
 357 610 410 553 410 480 c 0xcc
 410 397 330 317 330 220 c 0
 330 177 356 160 390 160 c 0
 424 160 450 177 450 220 c 2
 450 600 l 1
 720 600 l 1
 720 220 l 2
 720 54 591 -20 390 -20 c 0
 189 -20 60 54 60 220 c 0xb4
 60 333 190 369 190 425 c 0
 190 438 185 450 170 450 c 0
 141 450 118 419 110 400 c 1
 100 400 l 1
 20 450 l 1xcc
EndSplineSet
Colour: ffff00
EndChar

StartChar: uni0E06
Encoding: 3590 3590 11
Width: 775
VWidth: -360
Flags: W
HStem: -10 210<399.254 574.5> 0 21G<60 310> 450 160<157.194 273.498> 580 20G<460 730>
VStem: 190 220<385.397 516.5> 460 270<213.202 600>
LayerCount: 2
Fore
SplineSet
20 450 m 1x6c
 20 610 l 1
 30 610 l 1
 130 550 l 1
 150 570 196 610 270 610 c 0x6c
 357 610 410 553 410 480 c 0
 410 408 349 338 334 257 c 1
 347 222 368 200 400 200 c 0
 434 200 460 219 460 280 c 2
 460 600 l 1
 730 600 l 1
 730 220 l 2
 730 74 639 -10 510 -10 c 0x9c
 397 -10 338 56 310 102 c 1
 310 0 l 1
 60 0 l 1
 60 220 l 2
 60 333 190 369 190 425 c 0
 190 438 185 450 170 450 c 0
 141 450 118 419 110 400 c 1
 100 400 l 1
 20 450 l 1x6c
EndSplineSet
Colour: ffff00
EndChar

StartChar: uni0E07
Encoding: 3591 3591 12
Width: 770
VWidth: 0
Flags: W
HStem: 420 190<367.197 549> 580 20G<10 275.227>
VStem: 480 260<199.968 391.976>
AnchorPoint: "th-vow-below" 600 0 basechar 0
LayerCount: 2
Fore
SplineSet
10 600 m 1x60
 270 600 l 1x60
 385 160 l 1
 440 160 480 212 480 300 c 0
 480 380 443 420 400 420 c 0xa0
 389 420 379 418 370 415 c 1
 330 580 l 1x60
 359 599 406 610 460 610 c 0xa0
 638 610 740 471 740 300 c 0
 740 129 614 -10 380 -10 c 0
 274 -10 200 0 200 0 c 1
 10 600 l 1x60
EndSplineSet
Colour: ffff00
EndChar

StartChar: uni0E16
Encoding: 3606 3606 13
Width: 770
VWidth: 0
Flags: W
HStem: 0 21G<160 410 460 730> 440 180<321.829 448.219>
VStem: 90 260<150 395.783> 460 270<0 428.402>
LayerCount: 2
Fore
SplineSet
20 520 m 1
 20 520 178 620 380 620 c 0
 594 620 730 536 730 370 c 2
 730 0 l 1
 460 0 l 1
 460 370 l 2
 460 418 438 440 380 440 c 0
 366 440 344 439 318 436 c 1
 336 419 350 394 350 360 c 2
 350 150 l 1
 410 150 l 1
 410 0 l 1
 200 0 l 2
 120 0 90 42 90 90 c 2
 90 370 l 2
 90 389 86 396 79 397 c 1
 69 395 59 392 50 390 c 1
 20 520 l 1
EndSplineSet
Colour: ffff00
EndChar

StartChar: uni0E2E
Encoding: 3630 3630 14
Width: 750
VWidth: 0
Flags: W
HStem: -20 180<290.608 401.968> 230 110<275 320> 440 180<156.156 378.836>
VStem: 430 270<186.975 390>
LayerCount: 2
Fore
SplineSet
30 260 m 0
 30 305 52 340 90 340 c 2
 320 340 l 1
 320 230 l 1
 275 230 l 1
 275 182 310 160 350 160 c 0
 408 160 430 210 430 300 c 0
 430 400 370 440 280 440 c 0
 208 440 144 416 100 400 c 1
 40 550 l 1
 40 550 158 620 360 620 c 0
 445 620 495 596 520 578 c 1
 539 602 550 636 550 680 c 1
 750 680 l 1
 750 599 709 531 640 486 c 1
 671 453 700 396 700 300 c 0
 700 123 564 -20 350 -20 c 0
 168 -20 30 70 30 260 c 0
EndSplineSet
Substitution2: "TH Tail Swap" uni0E2E.swap
Substitution2: "'ss02' TH Tail swap" uni0E2E.swap
Colour: ffff00
EndChar

StartChar: uni0E20
Encoding: 3616 3616 15
Width: 770
VWidth: 0
Flags: W
HStem: 0 21G<40 290 460 730> 440 180<330.772 448.219>
VStem: 100 260<150 398.685> 460 270<0 428.402>
LayerCount: 2
Fore
SplineSet
20 520 m 1
 20 520 178 620 380 620 c 0
 594 620 730 536 730 370 c 2
 730 0 l 1
 460 0 l 1
 460 370 l 2
 460 418 438 440 380 440 c 0
 367 440 349 439 327 437 c 1
 346 420 360 394 360 360 c 2
 360 90 l 2
 360 42 330 0 250 0 c 2
 40 0 l 1
 40 150 l 1
 100 150 l 1
 100 370 l 2
 100 391 96 399 87 399 c 1
 74 396 62 393 50 390 c 1
 20 520 l 1
EndSplineSet
Colour: ffff00
EndChar

StartChar: uni0E14
Encoding: 3604 3604 16
Width: 790
VWidth: 0
Flags: W
HStem: -10 190<231 423.504> 0 21G<480 750> 420 200<342.889 463.683>
VStem: 30 280<213.556 385.855> 480 270<0 401.229>
LayerCount: 2
Fore
SplineSet
30 300 m 0xb8
 30 471 162 620 410 620 c 0
 630 620 750 505 750 370 c 2
 750 0 l 1
 480 0 l 1x78
 480 360 l 2
 480 386 457 420 410 420 c 0
 354 420 310 380 310 300 c 0
 310 220 352 180 400 180 c 0
 411 180 421 182 430 185 c 1
 430 20 l 1
 401 1 364 -10 320 -10 c 0
 142 -10 30 129 30 300 c 0xb8
EndSplineSet
Colour: ffff00
EndChar

StartChar: uni0E15
Encoding: 3605 3605 17
Width: 810
VWidth: 0
Flags: W
HStem: -10 190<231 423.504> 0 21G<490 760> 420 190<223.5 398.059> 580 20G<500 760>
VStem: 30 280<213.556 393.734> 490 270<0 368.889>
LayerCount: 2
Fore
SplineSet
30 300 m 0xac
 30 471 137 610 310 610 c 0xac
 386 610 453 553 500 485 c 1
 500 600 l 1
 760 600 l 1
 760 0 l 1
 490 0 l 1x5c
 490 334 l 1
 468 376 413 420 380 420 c 0
 344 420 310 380 310 300 c 0
 310 220 352 180 400 180 c 0
 411 180 421 182 430 185 c 1
 430 20 l 1
 401 1 364 -10 320 -10 c 0
 142 -10 30 129 30 300 c 0xac
EndSplineSet
Colour: ffff00
EndChar

StartChar: uni0E33
Encoding: 3635 3635 18
Width: 540
VWidth: 0
Flags: W
HStem: 0 21G<210 490> 410 200<87.5968 333> 670 90<-251.354 -178.646> 850 90<-251.354 -178.646>
VStem: -390 135<762.68 847.32> -175 135<762.68 847.32> 210 280<0 400.887>
LayerCount: 2
Fore
SplineSet
0 540 m 1
 0 540 84 610 250 610 c 0
 416 610 490 532 490 380 c 2
 490 0 l 1
 210 0 l 1
 210 360 l 2
 210 398 196 410 160 410 c 0
 124 410 72 394 50 380 c 1
 0 540 l 1
-255 805 m 0
 -255 775 -237 760 -215 760 c 0
 -193 760 -175 775 -175 805 c 0
 -175 835 -193 850 -215 850 c 0
 -237 850 -255 835 -255 805 c 0
-390 805 m 0
 -390 884 -329 940 -215 940 c 0
 -101 940 -40 884 -40 805 c 0
 -40 726 -101 670 -215 670 c 0
 -329 670 -390 726 -390 805 c 0
EndSplineSet
Substitution2: "TH Sara Am Alter" uni0E33.alt
Colour: ffff00
EndChar

StartChar: uni0E08
Encoding: 3592 3592 19
Width: 710
VWidth: -360
Flags: W
HStem: -10 350<190.037 298.12> 440 180<136.196 362.061>
VStem: 410 270<201.162 394.651>
AnchorPoint: "th-vow-below" 520 0 basechar 0
LayerCount: 2
Fore
SplineSet
20 550 m 1
 20 550 138 620 340 620 c 0
 554 620 680 504 680 320 c 0
 680 149 555 -10 370 -10 c 0
 240 -10 190 0 190 0 c 1
 110 190 l 1
 50 190 l 1
 50 340 l 1
 240 340 l 2
 282 340 299 320 310 290 c 2
 353 168 l 1
 386 186 410 233 410 310 c 0
 410 395 360 440 270 440 c 0
 198 440 124 416 80 400 c 1
 20 550 l 1
EndSplineSet
Colour: ffff00
EndChar

StartChar: uni0E09
Encoding: 3593 3593 20
Width: 750
VWidth: 0
Flags: W
HStem: -10 170<205.5 383> 0 21G<460 710> 440 180<158.618 399.255>
VStem: 440 270<176.514 400.164>
LayerCount: 2
Fore
SplineSet
30 550 m 1xb0
 30 550 168 620 370 620 c 0
 584 620 710 536 710 370 c 2
 710 0 l 1
 460 0 l 1x70
 460 92 l 1
 432 51 358 -10 240 -10 c 0
 171 -10 90 26 90 130 c 2
 90 190 l 1
 50 190 l 1
 50 340 l 1
 260 340 l 2
 326 340 330 317 330 280 c 2
 330 210 l 2
 330 173 345 160 370 160 c 0
 396 160 420 177 440 204 c 1
 440 340 l 2
 440 411 374 440 290 440 c 0
 218 440 134 416 90 400 c 1
 30 550 l 1xb0
EndSplineSet
Colour: ffff00
EndChar

StartChar: uni0E0A
Encoding: 3594 3594 21
Width: 770
VWidth: -360
Flags: W
HStem: -20 180<330.999 429.001> 430 100<400 435.794> 580 20G<50 304>
VStem: 50 330<421.878 565.391> 50 270<169.141 335.164> 440 270<168.809 399.727>
LayerCount: 2
Fore
SplineSet
50 220 m 0xec
 50 338 130 420 130 420 c 1
 50 420 l 1
 50 600 l 1xec
 260 600 l 2
 348 600 380 553 380 480 c 0xf4
 380 397 320 317 320 220 c 0xec
 320 178 346 160 380 160 c 0
 414 160 440 177 440 220 c 2
 440 370 l 2
 440 410 435 430 410 430 c 2
 400 430 l 1
 400 530 l 1
 489 530 550 575 550 680 c 1
 750 680 l 1
 750 582 690 503 594 462 c 1
 658 440 710 382 710 350 c 2
 710 220 l 2
 710 54 581 -20 380 -20 c 0xf4
 179 -20 50 60 50 220 c 0xec
EndSplineSet
Substitution2: "TH Tail Swap" uni0E0A.swap
Substitution2: "'ss02' TH Tail swap" uni0E0A.swap
Colour: ffff00
EndChar

StartChar: uni0E0B
Encoding: 3595 3595 22
Width: 780
VWidth: -360
Flags: W
HStem: -20 180<340.999 439.001> 450 160<157.194 273.498>
VStem: 60 270<168.228 298.742> 190 220<386.035 516.5> 450 270<168.809 399.727>
LayerCount: 2
Fore
SplineSet
20 450 m 1xd8
 20 610 l 1
 30 610 l 1
 130 550 l 1
 150 570 196 610 270 610 c 0
 357 610 410 553 410 480 c 0xd8
 410 397 330 317 330 220 c 0
 330 177 356 160 390 160 c 0
 424 160 450 177 450 220 c 2
 450 370 l 2
 450 410 445 430 420 430 c 2
 415 430 l 1
 415 530 l 1
 504 530 560 575 560 680 c 1
 760 680 l 1
 760 582 700 503 604 462 c 1
 668 440 720 382 720 350 c 2
 720 220 l 2
 720 54 591 -20 390 -20 c 0
 189 -20 60 54 60 220 c 0xe8
 60 333 190 369 190 425 c 0
 190 438 185 450 170 450 c 0
 141 450 118 419 110 400 c 1
 100 400 l 1
 20 450 l 1xd8
EndSplineSet
Substitution2: "TH Tail Swap" uni0E0B.swap
Substitution2: "'ss02' TH Tail swap" uni0E0B.swap
Colour: ffff00
EndChar

StartChar: uni0E0C
Encoding: 3596 3596 23
Width: 1150
VWidth: 0
Flags: W
HStem: -10 200<778 959> 0 21G<160 410 460 710> 440 180<321.829 448.219> 580 20G<830 1100>
VStem: 90 260<150 395.783> 460 270<201.951 428.402> 830 270<196.523 600>
LayerCount: 2
Fore
SplineSet
20 520 m 1x6e
 20 520 178 620 380 620 c 0x6e
 594 620 730 536 730 370 c 2
 730 230 l 1
 747 205 766 190 790 190 c 0
 816 190 830 209 830 270 c 2
 830 600 l 1
 1100 600 l 1
 1100 210 l 2
 1100 64 1018 -10 900 -10 c 0x9e
 796 -10 738 48 710 92 c 1
 710 0 l 1
 460 0 l 1
 460 370 l 2
 460 418 438 440 380 440 c 0
 366 440 344 439 318 436 c 1
 336 419 350 394 350 360 c 2
 350 150 l 1
 410 150 l 1
 410 0 l 1
 200 0 l 2
 120 0 90 42 90 90 c 2
 90 370 l 2
 90 389 86 396 79 397 c 1
 69 395 59 392 50 390 c 1
 20 520 l 1x6e
EndSplineSet
Colour: ffff00
EndChar

StartChar: uni0E0D
Encoding: 3597 3597 24
Width: 1150
VWidth: 0
Flags: W
HStem: -250 150<632.573 927.012> -20 180<736.847 823.153> 0 21G<160 410> 440 180<321.829 448.219> 580 20G<830 1100>
VStem: 90 260<150 395.783> 460 270<169.293 428.402> 830 270<169.293 600>
LayerCount: 2
Fore
SplineSet
505 -180 m 1x87
 565 -45 l 1
 565 -45 657 -100 780 -100 c 0
 902 -100 995 -45 995 -45 c 1
 1055 -180 l 1
 1055 -180 962 -250 780 -250 c 0
 597 -250 505 -180 505 -180 c 1x87
20 520 m 1
 20 520 178 620 380 620 c 0xb7
 594 620 730 536 730 370 c 2
 730 220 l 2
 730 179 745 160 780 160 c 0
 815 160 830 179 830 220 c 2
 830 600 l 1
 1100 600 l 1
 1100 210 l 2
 1100 83 1012 -20 780 -20 c 0xcf
 548 -20 460 83 460 210 c 2
 460 370 l 2
 460 418 438 440 380 440 c 0
 366 440 344 439 318 436 c 1
 336 419 350 394 350 360 c 2
 350 150 l 1
 410 150 l 1
 410 0 l 1
 200 0 l 2xb7
 120 0 90 42 90 90 c 2
 90 370 l 2
 90 389 86 396 79 397 c 1
 69 395 59 392 50 390 c 1
 20 520 l 1
EndSplineSet
Substitution2: "TH Descless" uni0E0D.descless
Substitution2: "'locl' Localized Thai-Sanskrit" uni0E0D.descless
Colour: ffff00
EndChar

StartChar: uni0E13
Encoding: 3603 3603 25
Width: 1150
VWidth: -360
Flags: W
HStem: -10 200<601 782> 0 21G<160 410 850 1100> 440 180<321.829 448.219> 580 20G<830 1100>
VStem: 90 260<150 395.783> 460 270<196.523 428.402> 830 270<201.951 600>
LayerCount: 2
Fore
SplineSet
20 520 m 1x6e
 20 520 178 620 380 620 c 0
 594 620 730 536 730 370 c 2
 730 270 l 2
 730 209 744 190 770 190 c 0xae
 794 190 813 205 830 230 c 1
 830 600 l 1
 1100 600 l 1
 1100 0 l 1
 850 0 l 1x5e
 850 92 l 1
 822 48 764 -10 660 -10 c 0x8e
 542 -10 460 64 460 210 c 2
 460 370 l 2
 460 418 438 440 380 440 c 0
 366 440 344 439 318 436 c 1
 336 419 350 394 350 360 c 2
 350 150 l 1
 410 150 l 1
 410 0 l 1
 200 0 l 2
 120 0 90 42 90 90 c 2
 90 370 l 2
 90 389 86 396 79 397 c 1
 69 395 59 392 50 390 c 1
 20 520 l 1x6e
EndSplineSet
Colour: ffff00
EndChar

StartChar: uni0E12
Encoding: 3602 3602 26
Width: 1180
VWidth: -360
Flags: W
HStem: -10 200<808 989> -10 190<231 423.504> 0 21G<490 740> 420 190<223.5 398.059> 580 20G<500 760 860 1130>
VStem: 30 280<213.556 393.734> 490 270<201.951 368.889> 860 270<196.523 600>
LayerCount: 2
Fore
SplineSet
30 300 m 0x57
 30 471 137 610 310 610 c 0x57
 386 610 453 553 500 485 c 1
 500 600 l 1
 760 600 l 1
 760 230 l 1
 777 205 796 190 820 190 c 0
 846 190 860 209 860 270 c 2
 860 600 l 1
 1130 600 l 1
 1130 210 l 2
 1130 64 1048 -10 930 -10 c 0x8f
 826 -10 768 48 740 92 c 1
 740 0 l 1
 490 0 l 1x27
 490 334 l 1
 468 376 413 420 380 420 c 0
 344 420 310 380 310 300 c 0
 310 220 352 180 400 180 c 0
 411 180 421 182 430 185 c 1
 430 20 l 1
 401 1 364 -10 320 -10 c 0
 142 -10 30 129 30 300 c 0x57
EndSplineSet
Colour: ffff00
EndChar

StartChar: uni0E11
Encoding: 3601 3601 27
Width: 785
VWidth: 0
Flags: W
HStem: 0 21G<70 350 460 740> 450 160<157.194 270.998>
VStem: 70 280<0 301.68> 460 280<0 369.989>
LayerCount: 2
Fore
SplineSet
20 450 m 1
 20 610 l 1
 30 610 l 1
 130 550 l 1
 150 570 196 610 270 610 c 0
 352 610 404 559 410 491 c 1
 448 553 504 610 580 610 c 0
 699 610 740 526 740 380 c 2
 740 0 l 1
 460 0 l 1
 460 330 l 2
 460 355 456 370 435 370 c 0
 395 370 365 291 350 220 c 1
 350 0 l 1
 70 0 l 1
 70 220 l 2
 70 333 190 369 190 425 c 0
 190 438 185 450 170 450 c 0
 141 450 118 419 110 400 c 1
 100 400 l 1
 20 450 l 1
EndSplineSet
Colour: ffff00
EndChar

StartChar: uni0E24
Encoding: 3620 3620 28
Width: 775
VWidth: 0
Flags: W
HStem: 0 21G<160 410> 440 180<321.829 448.219>
VStem: 90 260<150 395.783> 460 270<-240 428.402>
LayerCount: 2
Fore
SplineSet
20 520 m 1
 20 520 178 620 380 620 c 0
 594 620 730 536 730 370 c 2
 730 -240 l 1
 460 -240 l 1
 460 370 l 2
 460 418 438 440 380 440 c 0
 366 440 344 439 318 436 c 1
 336 419 350 394 350 360 c 2
 350 150 l 1
 410 150 l 1
 410 0 l 1
 200 0 l 2
 120 0 90 42 90 90 c 2
 90 370 l 2
 90 389 86 396 79 397 c 1
 69 395 59 392 50 390 c 1
 20 520 l 1
EndSplineSet
Colour: ffff00
EndChar

StartChar: uni0E26
Encoding: 3622 3622 29
Width: 775
VWidth: 0
Flags: W
HStem: 0 21G<40 290> 440 180<330.772 448.219>
VStem: 100 260<150 398.685> 460 270<-240 428.402>
LayerCount: 2
Fore
SplineSet
20 520 m 1
 20 520 178 620 380 620 c 0
 594 620 730 536 730 370 c 2
 730 -240 l 1
 460 -240 l 1
 460 370 l 2
 460 418 438 440 380 440 c 0
 367 440 349 439 327 437 c 1
 346 420 360 394 360 360 c 2
 360 90 l 2
 360 42 330 0 250 0 c 2
 40 0 l 1
 40 150 l 1
 100 150 l 1
 100 370 l 2
 100 391 96 399 87 399 c 1
 74 396 62 393 50 390 c 1
 20 520 l 1
EndSplineSet
Colour: ffff00
EndChar

StartChar: uni0E27
Encoding: 3623 3623 30
Width: 650
VWidth: 0
Flags: W
HStem: -20 200<106.766 293.648> 420 200<106.766 293.648>
VStem: 340 280<225.358 374.642>
LayerCount: 2
Fore
SplineSet
620 300 m 0
 620 123 484 -20 270 -20 c 0
 101 -20 20 50 20 50 c 1
 100 210 l 1
 122 196 151 180 220 180 c 0
 289 180 340 227 340 300 c 0
 340 373 289 420 220 420 c 0
 151 420 122 404 100 390 c 1
 20 550 l 1
 20 550 101 620 270 620 c 0
 484 620 620 477 620 300 c 0
EndSplineSet
Colour: ffff00
EndChar

StartChar: uni0E28
Encoding: 3624 3624 31
Width: 800
VWidth: 0
Flags: W
HStem: 0 21G<40 310 470 740> 165 175<329.086 419.578> 430 190<328.364 455.185>
VStem: 40 270<0 149.397 290 414.524> 470 270<0 414.151>
LayerCount: 2
Fore
SplineSet
40 0 m 1
 40 370 l 2
 40 536 176 620 390 620 c 0
 474 620 534 597 570 578 c 1
 589 602 600 636 600 680 c 1
 800 680 l 1
 800 600 760 532 692 488 c 1
 719 458 740 417 740 370 c 2
 740 0 l 1
 470 0 l 1
 470 360 l 2
 470 408 434 430 390 430 c 0
 346 430 310 408 310 360 c 2
 310 290 l 1
 328 317 351 340 380 340 c 0
 402 340 410 335 420 330 c 1
 420 160 l 1
 412 162 401 165 385 165 c 0
 351 165 324 145 310 124 c 1
 310 0 l 1
 40 0 l 1
EndSplineSet
Substitution2: "TH Tail Swap" uni0E28.swap
Substitution2: "'ss02' TH Tail swap" uni0E28.swap
Colour: ffff00
EndChar

StartChar: uni0E29
Encoding: 3625 3625 32
Width: 830
VWidth: -360
Flags: W
HStem: -20 190<333.364 456.636> 290 140<375 475 745 815> 580 20G<45 315 475 735>
VStem: 45 270<185.476 600> 475 260<430 600>
LayerCount: 2
Fore
SplineSet
45 230 m 2
 45 600 l 1
 315 600 l 1
 315 240 l 2
 315 192 351 170 395 170 c 0
 439 170 475 192 475 240 c 2
 475 290 l 1
 375 290 l 1
 375 430 l 1
 475 430 l 1
 475 600 l 1
 735 600 l 1
 735 430 l 1
 815 430 l 1
 815 290 l 1
 745 290 l 1
 745 230 l 2
 745 64 609 -20 395 -20 c 0
 181 -20 45 64 45 230 c 2
EndSplineSet
Colour: ffff00
EndChar

StartChar: uni0E2B
Encoding: 3627 3627 33
Width: 740
VWidth: -360
Flags: W
HStem: 0 21G<50 320 437.895 730> 580 20G<50 320 432.353 700>
VStem: 50 270<0 280 430 600>
LayerCount: 2
Fore
SplineSet
50 0 m 1
 50 600 l 1
 320 600 l 1
 320 430 l 1
 375 430 l 1
 440 600 l 1
 700 600 l 1
 700 590 l 1
 607 410 l 1
 656 382 669 327 680 280 c 1
 730 0 l 1
 440 0 l 1
 420 190 l 1
 415 249 404 280 350 280 c 2
 320 280 l 1
 320 0 l 1
 50 0 l 1
EndSplineSet
Colour: ffff00
EndChar

StartChar: uni0E1E
Encoding: 3614 3614 34
Width: 1050
VWidth: 0
Flags: W
HStem: 0 21G<174.333 465.2 584.8 875.667> 580 20G<10 298.333 445.152 604.849 751.667 1040>
AnchorPoint: "th-vow-below" 840 0 basechar 0
AnchorPoint: "th-vow-above" 900 660 basechar 0
LayerCount: 2
Fore
SplineSet
10 600 m 1
 295 600 l 1
 350 270 l 1
 355 230 l 1
 365 230 l 1
 370 270 l 1
 450 600 l 1
 525 600 l 1
 600 600 l 1
 680 270 l 1
 685 230 l 1
 695 230 l 1
 700 270 l 1
 755 600 l 1
 1040 600 l 1
 870 0 l 1
 590 0 l 1
 525 250 l 1
 460 0 l 1
 180 0 l 1
 10 600 l 1
EndSplineSet
Colour: ffff00
EndChar

StartChar: uni0E1F
Encoding: 3615 3615 35
Width: 1040
VWidth: -360
Flags: W
HStem: 0 21G<174.333 465.2 584.8 883.81> 580 20G<10 298.333 445.152 604.849> 820 20G<767.544 1040>
AnchorPoint: "th-vow-above" 680 660 basechar 0
LayerCount: 2
Fore
SplineSet
10 600 m 1
 295 600 l 1
 350 270 l 1
 355 230 l 1
 365 230 l 1
 370 270 l 1
 450 600 l 1
 525 600 l 1
 600 600 l 1
 680 270 l 1
 685 230 l 1
 695 230 l 1
 700 270 l 1
 770 840 l 1
 1040 840 l 1
 880 0 l 1
 590 0 l 1
 525 250 l 1
 460 0 l 1
 180 0 l 1
 10 600 l 1
EndSplineSet
Colour: ffff00
EndChar

StartChar: uni0E1D
Encoding: 3613 3613 36
Width: 930
VWidth: 0
Flags: W
HStem: 0 21G<173 383.333 556.667 870> 420 190<221 402.803> 820 20G<600 870>
VStem: 30 270<211.456 399.77> 600 270<213 840>
AnchorPoint: "th-vow-above" 580 660 basechar 0
LayerCount: 2
Fore
SplineSet
30 300 m 0
 30 471 132 610 310 610 c 0
 364 610 411 599 440 580 c 1
 400 415 l 1
 391 418 381 420 370 420 c 0
 327 420 300 380 300 300 c 0
 300 255 313 222 334 203 c 1
 425 350 l 1
 470 350 l 1
 515 350 l 1
 600 213 l 1
 600 840 l 1
 870 840 l 1
 870 0 l 1
 570 0 l 1
 470 150 l 1
 370 0 l 1
 210 0 l 1
 136 22 30 130 30 300 c 0
EndSplineSet
Colour: ffff00
EndChar

StartChar: uni0E1C
Encoding: 3612 3612 37
Width: 920
VWidth: 0
Flags: W
HStem: 0 21G<173 383.333 556.667 870> 420 190<221 402.803> 580 20G<600 870>
VStem: 30 270<211.456 399.77> 600 270<213 600>
LayerCount: 2
Fore
SplineSet
30 300 m 0xb8
 30 471 132 610 310 610 c 0xd8
 364 610 411 599 440 580 c 1xb8
 400 415 l 1
 391 418 381 420 370 420 c 0xd8
 327 420 300 380 300 300 c 0
 300 255 313 222 334 203 c 1
 425 350 l 1
 470 350 l 1
 515 350 l 1
 600 213 l 1
 600 600 l 1
 870 600 l 1
 870 0 l 1
 570 0 l 1
 470 150 l 1
 370 0 l 1
 210 0 l 1
 136 22 30 130 30 300 c 0xb8
EndSplineSet
Colour: ffff00
EndChar

StartChar: uni0E25
Encoding: 3621 3621 38
Width: 740
VWidth: 0
Flags: W
HStem: -10 140<177 373.946> 0 21G<430 700> 230 140<177 379.413> 440 180<163.061 403.596>
VStem: 30 270<138.996 221.004> 430 270<0 222.762 311 414.524>
LayerCount: 2
Fore
SplineSet
30 180 m 0xbc
 30 288 104 370 250 370 c 0
 347 370 403 335 430 311 c 1
 430 360 l 2
 430 421 378 440 300 440 c 0
 222 440 144 416 100 400 c 1
 40 550 l 1
 40 550 168 620 370 620 c 0
 584 620 700 536 700 370 c 2
 700 0 l 1
 430 0 l 1x7c
 430 208 l 1
 412 222 392 230 360 230 c 0
 328 230 300 215 300 180 c 0
 300 145 328 130 360 130 c 0
 371 130 381 132 390 135 c 1
 390 25 l 1
 358 6 313 -10 250 -10 c 0
 104 -10 30 72 30 180 c 0xbc
EndSplineSet
Colour: ffff00
EndChar

StartChar: uni0E2A
Encoding: 3626 3626 39
Width: 760
VWidth: 0
Flags: W
HStem: -10 140<177 373.946> 0 21G<430 700> 230 140<177 379.413> 440 180<163.061 406.891>
VStem: 30 270<138.996 221.004> 430 270<0 222.762 311 415.586>
LayerCount: 2
Fore
SplineSet
30 180 m 0xbc
 30 288 104 370 250 370 c 0
 347 370 403 335 430 311 c 1
 430 360 l 2
 430 421 378 440 300 440 c 0
 222 440 144 416 100 400 c 1
 40 550 l 1
 40 550 168 620 370 620 c 0
 443 620 498 600 533 582 c 1
 550 606 560 638 560 680 c 1
 760 680 l 1
 760 599 719 531 651 487 c 1
 675 462 700 423 700 370 c 2
 700 0 l 1
 430 0 l 1x7c
 430 208 l 1
 412 222 392 230 360 230 c 0
 328 230 300 215 300 180 c 0
 300 145 328 130 360 130 c 0
 371 130 381 132 390 135 c 1
 390 25 l 1
 358 6 313 -10 250 -10 c 0
 104 -10 30 72 30 180 c 0xbc
EndSplineSet
Substitution2: "TH Tail Swap" uni0E2A.swap
Substitution2: "'ss02' TH Tail swap" uni0E2A.swap
Colour: ffff00
EndChar

StartChar: uni0E2C
Encoding: 3628 3628 40
Width: 1040
VWidth: -360
Flags: W
HStem: 0 21G<174.333 465.2 584.8 875.667> 580 20G<10 298.333 445.152 604.849>
VStem: 725 250<340.625 468.259>
AnchorPoint: "th-vow-below" 840 0 basechar 0
LayerCount: 2
Fore
SplineSet
10 600 m 1
 295 600 l 1
 350 270 l 1
 355 230 l 1
 365 230 l 1
 370 270 l 1
 450 600 l 1
 525 600 l 1
 600 600 l 1
 680 270 l 1
 685 230 l 1
 695 230 l 1
 700 270 l 1
 721 400 l 1
 721 400 725 429 725 445 c 0
 725 460 721 483 700 490 c 1
 730 600 l 1
 794 600 860 608 860 710 c 1
 1060 710 l 1
 1060 580 957 521 893 500 c 1
 940 487 975 454 975 400 c 0
 975 367 955 300 955 300 c 1
 870 0 l 1
 590 0 l 1
 525 250 l 1
 460 0 l 1
 180 0 l 1
 10 600 l 1
EndSplineSet
Substitution2: "TH Tail Swap" uni0E2C.swap
Substitution2: "'ss02' TH Tail swap" uni0E2C.swap
Colour: ffff00
EndChar

StartChar: uni0E22
Encoding: 3618 3618 41
Width: 775
VWidth: -360
Flags: W
HStem: -20 170<303.807 441.636> 260 120<300.797 390> 470 140<177 373.361> 580 20G<460 730>
VStem: 30 260<164.487 245.258 385.603 462.622> 460 270<164.914 600>
LayerCount: 2
Fore
SplineSet
30 190 m 0xdc
 30 250 57 289 100 314 c 1
 56 340 30 379 30 430 c 0
 30 525 104 610 250 610 c 0
 315 610 360 593 390 575 c 1
 390 465 l 1
 381 467 361 470 350 470 c 0xec
 318 470 290 460 290 425 c 0
 290 390 318 380 350 380 c 2
 390 380 l 1
 390 360 l 1
 390 280 l 1
 390 260 l 1
 334 260 290 245 290 205 c 0
 290 165 332 150 380 150 c 0
 424 150 460 172 460 220 c 2
 460 600 l 1
 730 600 l 1
 730 230 l 2
 730 64 594 -20 380 -20 c 0
 146 -20 30 86 30 190 c 0xdc
EndSplineSet
Colour: ffff00
EndChar

StartChar: uni0E10
Encoding: 3600 3600 42
Width: 740
VWidth: 0
Flags: W
HStem: -250 140<94.3405 271.922> -240 180<470 650> -10 350<190.037 298.12> 440 180<136.196 364.741> 510 170<601.367 720>
VStem: 410 270<201.162 395.154>
AnchorPoint: "th-vow-above" 600 660 basechar 0
LayerCount: 2
Fore
SplineSet
30 -190 m 1xa4
 100 -70 l 1
 100 -70 126 -110 180 -110 c 0xa4
 261 -110 300 -60 300 -60 c 1
 380 -60 l 1
 470 -144 l 1
 470 -60 l 1
 650 -60 l 1
 650 -240 l 1
 500 -240 l 1
 470 -240 l 1
 430 -240 l 1x64
 360 -181 l 1
 308 -226 244 -250 180 -250 c 0
 82 -250 30 -190 30 -190 c 1xa4
20 550 m 1
 20 550 138 620 340 620 c 0x34
 396 620 437 608 466 595 c 1
 530 635 623 680 720 680 c 1
 720 510 l 1x2c
 668 510 629 505 600 498 c 1
 636 462 680 397 680 320 c 0
 680 149 555 -10 370 -10 c 0
 240 -10 190 0 190 0 c 1
 110 190 l 1
 50 190 l 1
 50 340 l 1
 240 340 l 2
 282 340 299 320 310 290 c 2
 353 168 l 1
 386 186 410 233 410 310 c 0
 410 395 360 440 270 440 c 0x34
 198 440 124 416 80 400 c 1
 20 550 l 1
EndSplineSet
Substitution2: "TH Descless" uni0E10.descless
Substitution2: "'locl' Localized Thai-Sanskrit" uni0E10.descless
Colour: ffff00
EndChar

StartChar: uni0E23
Encoding: 3619 3619 43
Width: 630
VWidth: 0
Flags: W
HStem: -20 155<160.853 318.755> 465 155<311.707 473.731>
VStem: 30 280<355.397 460.952> 320 270<138.759 241.071>
AnchorPoint: "th-vow-above" 570 660 basechar 0
LayerCount: 2
Fore
SplineSet
600 550 m 1
 530 410 l 1
 493 439 406 465 365 465 c 0
 332 465 310 457 310 435 c 0
 310 416 330 406 360 395 c 0
 384 386 422 372 450 360 c 0
 508 335 590 288 590 190 c 0
 590 63 477 -20 310 -20 c 0
 173 -20 94 16 40 50 c 1
 110 190 l 1
 142 162 220 135 260 135 c 0
 296 135 320 143 320 165 c 0
 320 184 296 194 270 205 c 0
 248 214 207 230 180 240 c 0
 119 263 30 306 30 409 c 0
 30 555 174 620 320 620 c 0
 436 620 541 584 600 550 c 1
EndSplineSet
Colour: ffff00
EndChar

StartChar: uni0E18
Encoding: 3608 3608 44
Width: 720
VWidth: -360
Flags: W
HStem: -20 150<303.765 424.766> 470 150<321.837 534.381>
VStem: 40 280<378.5 468.199>
LayerCount: 2
Fore
SplineSet
300 133 m 1
 321 131 340 130 355 130 c 0
 401 130 430 141 430 165 c 0
 430 199 394 212 360 220 c 0
 349 223 327 228 300 235 c 1
 300 133 l 1
40 420 m 0
 40 540 164 620 340 620 c 0
 516 620 630 570 660 550 c 1
 600 420 l 1
 530 453 429 470 370 470 c 0
 346 470 320 466 320 450 c 0
 320 428 342 426 360 420 c 0
 386 411 509 379 540 370 c 0
 624 344 690 293 690 180 c 0
 690 55 559 -20 390 -20 c 0
 221 -20 90 30 60 50 c 1
 60 250 l 1
 241 250 l 1
 213 257 187 265 170 270 c 0
 87 296 40 337 40 420 c 0
EndSplineSet
Colour: ffff00
EndChar

StartChar: uni0E0E
Encoding: 3598 3598 45
Width: 775
VWidth: 0
Flags: W
HStem: -190 140<122.29 391.493> 0 21G<40 290> 440 180<330.772 448.219>
VStem: 100 260<150 398.685> 460 270<-104 428.402>
LayerCount: 2
Fore
SplineSet
20 520 m 1
 20 520 178 620 380 620 c 0
 594 620 730 536 730 370 c 2
 730 -240 l 1
 490 -240 l 1
 490 -240 381 -190 240 -190 c 0
 142 -190 80 -240 80 -240 c 1
 40 -110 l 1
 40 -110 90 -50 230 -50 c 0
 332 -50 410 -79 460 -104 c 1
 460 370 l 2
 460 418 438 440 380 440 c 0
 367 440 349 439 327 437 c 1
 346 420 360 394 360 360 c 2
 360 90 l 2
 360 42 330 0 250 0 c 2
 40 0 l 1
 40 150 l 1
 100 150 l 1
 100 370 l 2
 100 391 96 399 87 399 c 1
 74 396 62 393 50 390 c 1
 20 520 l 1
EndSplineSet
Colour: ffff00
EndChar

StartChar: uni0E0F
Encoding: 3599 3599 46
Width: 775
VWidth: 0
Flags: W
HStem: -250 140<104.341 281.922> 0 21G<40 290> 440 180<330.772 448.219>
VStem: 100 260<150 398.685> 460 270<-125 428.402>
LayerCount: 2
Fore
SplineSet
20 520 m 1
 20 520 178 620 380 620 c 0
 594 620 730 536 730 370 c 2
 730 -240 l 1
 510 -240 l 1
 460 -240 l 1
 440 -240 l 1
 370 -181 l 1
 318 -226 254 -250 190 -250 c 0
 92 -250 40 -190 40 -190 c 1
 110 -70 l 1
 110 -70 136 -110 190 -110 c 0
 271 -110 310 -60 310 -60 c 1
 390 -60 l 1
 460 -125 l 1
 460 370 l 2
 460 418 438 440 380 440 c 0
 367 440 349 439 327 437 c 1
 346 420 360 394 360 360 c 2
 360 90 l 2
 360 42 330 0 250 0 c 2
 40 0 l 1
 40 150 l 1
 100 150 l 1
 100 370 l 2
 100 391 96 399 87 399 c 1
 74 396 62 393 50 390 c 1
 20 520 l 1
EndSplineSet
Colour: ffff00
EndChar

StartChar: uni0E31
Encoding: 3633 3633 47
Width: 0
VWidth: 0
Flags: W
HStem: 690 150<-305 -30>
VStem: -510 480<719.307 837.661>
AnchorPoint: "th-mkmk" 0 0 basemark 0
AnchorPoint: "th-vow-above" -70 660 mark 0
LayerCount: 2
Fore
SplineSet
-510 780 m 0
 -510 836 -475 900 -475 900 c 1
 -285 900 l 1
 -305 840 l 1
 -30 840 l 1
 -30 690 l 1
 -400 690 l 2
 -461 690 -510 722 -510 780 c 0
EndSplineSet
Substitution2: "TH Vowel to Left" uni0E31.left
Colour: ffff00
EndChar

StartChar: uni0E34
Encoding: 3636 3636 48
Width: 0
VWidth: 0
Flags: W
HStem: 690 150<-590 -90>
AnchorPoint: "th-mkmk" 0 0 basemark 0
AnchorPoint: "th-vow-above" -70 660 mark 0
LayerCount: 2
Fore
SplineSet
-590 690 m 1
 -590 840 l 1
 -90 840 l 1
 -90 690 l 1
 -590 690 l 1
EndSplineSet
Substitution2: "TH Vowel to Left" uni0E34.left
Colour: ffff00
EndChar

StartChar: uni0E35
Encoding: 3637 3637 49
Width: 0
VWidth: 0
Flags: W
HStem: 690 230<-290 -90> 690 150<-600 -302.419>
VStem: -290 200<800 920>
AnchorPoint: "th-mkmk" 0 0 basemark 0
AnchorPoint: "th-vow-above" -70 660 mark 0
LayerCount: 2
Fore
SplineSet
-600 690 m 1x60
 -600 840 l 1
 -370 840 l 2x60
 -314 840 -290 800 -290 800 c 1
 -290 920 l 1
 -90 920 l 1
 -90 690 l 1xa0
 -600 690 l 1x60
EndSplineSet
Substitution2: "TH Vowel to Left" uni0E35.left
Colour: ffff00
EndChar

StartChar: uni0E36
Encoding: 3638 3638 50
Width: 0
VWidth: 0
Flags: W
HStem: 690 150<-610 -361.6> 690 80<-247.988 -172.115> 850 80<-247.936 -172.064>
VStem: -350 100<798.443 847.911> -170 100<772.089 847.911>
AnchorPoint: "th-mkmk" 0 0 basemark 0
AnchorPoint: "th-vow-above" -70 660 mark 0
LayerCount: 2
Fore
SplineSet
-250 810 m 0x78
 -250 784 -233 770 -210 770 c 0
 -187 770 -170 784 -170 810 c 0
 -170 836 -187 850 -210 850 c 0
 -233 850 -250 836 -250 810 c 0x78
-610 690 m 1xb8
 -610 840 l 1
 -410 840 l 2xb8
 -384 840 -363 819 -349 798 c 1
 -350 802 -350 806 -350 810 c 0
 -350 882 -296 930 -210 930 c 0
 -124 930 -70 882 -70 810 c 0
 -70 738 -124 690 -210 690 c 2x78
 -610 690 l 1xb8
EndSplineSet
Substitution2: "TH Vowel to Left" uni0E36.left
Colour: ffff00
EndChar

StartChar: uni0E37
Encoding: 3639 3639 51
Width: 0
VWidth: 0
Flags: W
HStem: 690 230<-430 -280 -230 -80> 690 150<-610 -440.279> 690 100<-280 -230>
VStem: -430 150<800 920> -230 150<790 920>
AnchorPoint: "th-mkmk" 0 0 basemark 0
AnchorPoint: "th-vow-above" -70 660 mark 0
LayerCount: 2
Fore
SplineSet
-610 690 m 1x58
 -610 840 l 1
 -500 840 l 2x58
 -449 840 -430 800 -430 800 c 1
 -430 920 l 1
 -280 920 l 1x98
 -280 790 l 1
 -230 790 l 1x38
 -230 920 l 1
 -80 920 l 1
 -80 690 l 1x98
 -610 690 l 1x58
EndSplineSet
Substitution2: "TH Vowel to Left" uni0E37.left
Colour: ffff00
EndChar

StartChar: uni0E4D
Encoding: 3661 3661 52
Width: 0
VWidth: 0
Flags: W
HStem: 670 90<-251.354 -178.646> 850 90<-251.354 -178.646>
VStem: -390 135<762.68 847.32> -175 135<762.68 847.32>
LayerCount: 2
Fore
SplineSet
-255 805 m 0
 -255 775 -237 760 -215 760 c 0
 -193 760 -175 775 -175 805 c 0
 -175 835 -193 850 -215 850 c 0
 -237 850 -255 835 -255 805 c 0
-390 805 m 0
 -390 884 -329 940 -215 940 c 0
 -101 940 -40 884 -40 805 c 0
 -40 726 -101 670 -215 670 c 0
 -329 670 -390 726 -390 805 c 0
EndSplineSet
Substitution2: "TH Nikhahit High-Left" uni0E4D.high.left
Substitution2: "TH Vowel to Left" uni0E4D.low.left
Substitution2: "TH Tone High to High-Left" uni0E4D.high.left
Substitution2: "TH Nikhahit High" uni0E4D.high
Colour: ffff00
EndChar

StartChar: uni0E32
Encoding: 3634 3634 53
Width: 540
VWidth: 0
Flags: W
HStem: 0 21G<210 490> 410 200<87.5968 333>
VStem: 210 280<0 400.887>
LayerCount: 2
Fore
SplineSet
0 540 m 1
 0 540 84 610 250 610 c 0
 416 610 490 532 490 380 c 2
 490 0 l 1
 210 0 l 1
 210 360 l 2
 210 398 196 410 160 410 c 0
 124 410 72 394 50 380 c 1
 0 540 l 1
EndSplineSet
Colour: ffff00
EndChar

StartChar: uni0E38
Encoding: 3640 3640 54
Width: 0
VWidth: 0
Flags: W
HStem: -280 220<-280 -88.7419> -180 120<-330 -280>
VStem: -280 200<-280 -180>
AnchorPoint: "th-vow-below" -70 0 mark 0
LayerCount: 2
Fore
SplineSet
-330 -60 m 1x60
 -140 -60 l 2
 -104 -60 -80 -84 -80 -120 c 2
 -80 -280 l 1
 -280 -280 l 1xa0
 -280 -180 l 1
 -330 -180 l 1
 -330 -60 l 1x60
EndSplineSet
Substitution2: "TH Vow Lower" uni0E38.low
Colour: ffff00
EndChar

StartChar: uni0E3A
Encoding: 3642 3642 55
Width: 0
VWidth: 0
Flags: W
HStem: -220 160<-280 -80>
VStem: -280 200<-220 -60>
AnchorPoint: "th-vow-below" -70 0 mark 0
LayerCount: 2
Fore
SplineSet
-280 -60 m 1
 -80 -60 l 1
 -80 -220 l 1
 -280 -220 l 1
 -280 -60 l 1
EndSplineSet
Substitution2: "TH Vow Lower" uni0E3A.low
Colour: ffff00
EndChar

StartChar: uni0E39
Encoding: 3641 3641 56
Width: 0
VWidth: 0
Flags: W
HStem: -280 90<-320 -250> -180 120<-550 -500>
VStem: -250 180<-190 -60>
AnchorPoint: "th-vow-below" -170 0 mark 0
LayerCount: 2
Fore
SplineSet
-550 -60 m 1
 -380 -60 l 2
 -344 -60 -320 -84 -320 -120 c 2
 -320 -190 l 1
 -250 -190 l 1
 -250 -60 l 1
 -70 -60 l 1
 -70 -220 l 2
 -70 -255 -100 -280 -160 -280 c 2
 -410 -280 l 2
 -470 -280 -500 -255 -500 -220 c 2
 -500 -180 l 1
 -550 -180 l 1
 -550 -60 l 1
EndSplineSet
Substitution2: "TH Vow Lower" uni0E39.low
Colour: ffff00
EndChar

StartChar: uni0E49
Encoding: 3657 3657 57
Width: 0
VWidth: 0
Flags: W
HStem: 960 110<-195 -30> 1080 90<-380 -320>
VStem: -390 360<962.209 1045>
AnchorPoint: "th-mkmk" 0 0 mark 0
LayerCount: 2
Fore
SplineSet
-390 1000 m 0
 -390 1017 -383 1029 -370 1040 c 2
 -320 1080 l 1
 -380 1080 l 1
 -380 1170 l 1
 -180 1170 l 2
 -154 1170 -140 1153 -140 1135 c 0
 -140 1121 -145 1113 -155 1105 c 2
 -195 1070 l 1
 -30 1070 l 1
 -30 960 l 1
 -350 960 l 2
 -375 960 -390 979 -390 1000 c 0
EndSplineSet
Substitution2: "TH Tone High to High-Left" uni0E49.high.left
Substitution2: "TH Tone High to Low-Left" uni0E49.low.left
Substitution2: "TH Tone High to Low" uni0E49.low
Colour: ffff00
EndChar

StartChar: uni0E48
Encoding: 3656 3656 58
Width: 0
VWidth: 0
Flags: W
HStem: 960 210<-280 -100>
VStem: -280 180<960 1170>
AnchorPoint: "th-mkmk" 0 0 mark 0
LayerCount: 2
Fore
SplineSet
-280 960 m 1
 -280 1170 l 1
 -100 1170 l 1
 -100 960 l 1
 -280 960 l 1
EndSplineSet
Substitution2: "TH Tone High to High-Left" uni0E48.high.left
Substitution2: "TH Tone High to Low-Left" uni0E48.low.left
Substitution2: "TH Tone High to Low" uni0E48.low
Colour: ffff00
EndChar

StartChar: uni0E4B
Encoding: 3659 3659 59
Width: 0
VWidth: 0
Flags: W
HStem: 960 210<-270 -110> 1020 90<-350 -270 -110 -30>
VStem: -270 160<960 1020 1110 1170>
AnchorPoint: "th-mkmk" 0 0 mark 0
LayerCount: 2
Fore
SplineSet
-350 1020 m 1x60
 -350 1110 l 1
 -270 1110 l 1x60
 -270 1170 l 1
 -110 1170 l 1xa0
 -110 1110 l 1
 -30 1110 l 1
 -30 1020 l 1
 -110 1020 l 1x60
 -110 960 l 1
 -270 960 l 1xa0
 -270 1020 l 1
 -350 1020 l 1x60
EndSplineSet
Substitution2: "TH Tone High to High-Left" uni0E4B.high.left
Substitution2: "TH Tone High to Low-Left" uni0E4B.low.left
Substitution2: "TH Tone High to Low" uni0E4B.low
Colour: ffff00
EndChar

StartChar: uni0E40
Encoding: 3648 3648 60
Width: 390
VWidth: 0
Flags: W
HStem: -10 610<94.2812 329.955>
VStem: 60 270<22.8515 600>
LayerCount: 2
Fore
SplineSet
60 100 m 2
 60 600 l 1
 330 600 l 1
 330 0 l 1
 330 0 268 -10 200 -10 c 0
 88 -10 60 36 60 100 c 2
EndSplineSet
Colour: ffff00
EndChar

StartChar: uni0E41
Encoding: 3649 3649 61
Width: 750
VWidth: 0
Flags: W
HStem: -10 610<94.2812 329.955 454.281 689.955>
VStem: 60 270<22.8515 600> 420 270<22.8515 600>
LayerCount: 2
Fore
SplineSet
420 100 m 2
 420 600 l 1
 690 600 l 1
 690 0 l 1
 690 0 628 -10 560 -10 c 0
 448 -10 420 36 420 100 c 2
60 100 m 2
 60 600 l 1
 330 600 l 1
 330 0 l 1
 330 0 268 -10 200 -10 c 0
 88 -10 60 36 60 100 c 2
EndSplineSet
Colour: ffff00
EndChar

StartChar: uni0E2F
Encoding: 3631 3631 62
Width: 700
VWidth: 0
Flags: W
HStem: 0 21G<360 640> 290 170<148.5 316.845> 580 20G<20 230 380 640>
VStem: 20 210<470.615 600> 360 280<0 349> 380 260<491.494 600>
LayerCount: 2
Fore
SplineSet
20 490 m 1xf8
 20 600 l 1
 230 600 l 1
 230 540 l 2
 230 479 259 460 290 460 c 0
 329 460 362 490 380 535 c 1
 380 600 l 1
 640 600 l 1xf4
 640 0 l 1
 360 0 l 1
 360 349 l 1
 329 317 280 290 210 290 c 0
 87 290 21 386 20 490 c 1xf8
EndSplineSet
Colour: ffff00
EndChar

StartChar: uni0E30
Encoding: 3632 3632 63
Width: 520
VWidth: 0
Flags: W
HStem: 40 170<270 480> 350 170<270 480>
LayerCount: 2
Fore
SplineSet
40 450 m 0
 40 506 75 570 75 570 c 1
 290 570 l 1
 270 520 l 1
 480 520 l 1
 480 350 l 1
 150 350 l 2
 90 350 40 392 40 450 c 0
40 140 m 0
 40 196 75 260 75 260 c 1
 290 260 l 1
 270 210 l 1
 480 210 l 1
 480 40 l 1
 150 40 l 2
 90 40 40 82 40 140 c 0
EndSplineSet
Colour: ffff00
EndChar

StartChar: uni0E4A
Encoding: 3658 3658 64
Width: 0
VWidth: 0
Flags: W
HStem: 960 210<-230 -80> 960 90<-80 0> 1070 110<-365.5 -268.42>
VStem: -450 155<960.664 1069.76> -230 150<1050 1063.24 1108 1170>
AnchorPoint: "th-mkmk" 0 0 mark 0
LayerCount: 2
Fore
SplineSet
-450 1030 m 0x78
 -450 1119 -401 1180 -330 1180 c 0x78
 -287 1180 -255 1146 -230 1108 c 1
 -230 1170 l 1
 -80 1170 l 1x98
 -80 1050 l 1
 0 1050 l 1
 0 960 l 1x58
 -230 960 l 1x98
 -230 1026 l 1
 -244 1051 -257 1070 -270 1070 c 0
 -290 1070 -295 1036 -295 1020 c 0
 -295 994 -285 971 -280 960 c 1
 -440 960 l 1
 -446 977 -450 1002 -450 1030 c 0x78
EndSplineSet
Substitution2: "TH Tone High to High-Left" uni0E4A.high.left
Substitution2: "TH Tone High to Low-Left" uni0E4A.low.left
Substitution2: "TH Tone High to Low" uni0E4A.low
Colour: ffff00
EndChar

StartChar: uni0E47
Encoding: 3655 3655 65
Width: 0
VWidth: 0
Flags: W
HStem: 670 115<-391.593 -298.694> 680 140<-240 -150> 865 115<-390.487 -100>
VStem: -560 165<790.176 859.824>
AnchorPoint: "th-vow-above" -70 660 mark 0
LayerCount: 2
Fore
SplineSet
-560 825 m 0xb0
 -560 907 -503 980 -385 980 c 2
 -100 980 l 1
 -100 865 l 1
 -345 865 l 2
 -372 865 -395 852 -395 825 c 0
 -395 798 -372 785 -345 785 c 0xb0
 -310 785 -299 804 -295 820 c 1
 -150 820 l 1
 -90 690 l 1
 -90 680 l 1
 -240 680 l 1x70
 -264 741 l 1
 -280 705 -315 670 -385 670 c 0
 -503 670 -560 743 -560 825 c 0xb0
EndSplineSet
Substitution2: "TH Vowel to Left" uni0E47.left
Colour: ffff00
EndChar

StartChar: uni0E4C
Encoding: 3660 3660 66
Width: 0
VWidth: 0
Flags: W
HStem: 990 120<-195 -60>
VStem: -360 300<990.75 1090.53>
AnchorPoint: "th-mkmk" 0 0 mark 0
LayerCount: 2
Fore
SplineSet
-360 1030 m 0
 -360 1088 -321 1110 -260 1110 c 2
 -60 1110 l 1
 -60 990 l 1
 -195 990 l 1
 -165 930 l 1
 -315 930 l 1
 -315 930 -360 974 -360 1030 c 0
EndSplineSet
Substitution2: "TH Tone High to High-Left" uni0E4C.high.left
Substitution2: "TH Tone High to Low-Left" uni0E4C.low.left
Substitution2: "TH Tone High to Low" uni0E4C.low
Colour: ffff00
EndChar

StartChar: uni0E43
Encoding: 3651 3651 67
Width: 440
VWidth: 0
Flags: W
HStem: 780 150<144.102 238.07>
VStem: 90 270<22.8515 586.538> 240 200<695.844 778.09>
LayerCount: 2
Fore
SplineSet
-20 770 m 1xa0
 4 857 83 930 220 930 c 0
 348 930 440 856 440 760 c 0xa0
 440 646 360 628 360 510 c 2
 360 0 l 1
 360 0 298 -10 230 -10 c 0
 118 -10 90 36 90 100 c 2
 90 510 l 2xc0
 90 615 240 690 240 740 c 0
 240 765 227 780 200 780 c 0
 159 780 119 735 110 700 c 1
 -20 770 l 1xa0
EndSplineSet
Colour: ffff00
EndChar

StartChar: uni0E44
Encoding: 3652 3652 68
Width: 440
VWidth: 0
Flags: W
HStem: 780 150<198.363 351.5>
VStem: 90 270<22.8515 586.614> 260 200<711.819 822>
LayerCount: 2
Fore
SplineSet
0 770 m 1xa0
 0 920 l 1
 10 920 l 1
 128 842 l 1
 152 876 211 930 300 930 c 0
 403 930 460 864 460 780 c 0xa0
 460 677 360 628 360 510 c 2
 360 0 l 1
 360 0 298 -10 230 -10 c 0
 118 -10 90 36 90 100 c 2
 90 510 l 2xc0
 90 629 260 704 260 750 c 0
 260 767 251 780 230 780 c 0
 187 780 148 730 130 700 c 1
 120 700 l 1
 0 770 l 1xa0
EndSplineSet
Colour: ffff00
EndChar

StartChar: uni0E42
Encoding: 3650 3650 69
Width: 440
VWidth: 0
Flags: W
HStem: 780 150<145.5 350.988>
VStem: 90 270<22.8515 606.759>
LayerCount: 2
Fore
SplineSet
0 760 m 0
 0 856 81 930 210 930 c 0
 360 930 456 861 470 850 c 1
 400 730 l 1
 374 744 306 780 270 780 c 0
 236 780 220 773 220 750 c 0
 220 704 360 676 360 560 c 2
 360 0 l 1
 360 0 298 -10 230 -10 c 0
 118 -10 90 36 90 100 c 2
 90 510 l 2
 90 628 0 657 0 760 c 0
EndSplineSet
Colour: ffff00
EndChar

StartChar: uni0E45
Encoding: 3653 3653 70
Width: 540
VWidth: 0
Flags: W
HStem: 410 200<87.5968 333>
VStem: 210 280<-240 400.887>
LayerCount: 2
Fore
SplineSet
0 540 m 1
 0 540 84 610 250 610 c 0
 416 610 490 532 490 380 c 2
 490 -240 l 1
 210 -240 l 1
 210 360 l 2
 210 398 196 410 160 410 c 0
 124 410 72 394 50 380 c 1
 0 540 l 1
EndSplineSet
Colour: ffff00
EndChar

StartChar: uni0E46
Encoding: 3654 3654 71
Width: 600
VWidth: 0
Flags: W
HStem: 430 180<241.507 411> 580 20G<30 67.7647>
VStem: 270 270<-57.8208 377.806> 290 250<-38.3689 428.205>
LayerCount: 2
Fore
SplineSet
30 420 m 1x90
 30 600 l 1
 40 600 l 1x50
 158 515 l 1
 177 543 242 610 355 610 c 0
 467 610 540 529 540 440 c 2x90
 540 -40 l 2
 540 -169 453 -250 170 -250 c 1
 150 -80 l 1
 208 -80 270 -69 270 -10 c 2
 270 240 l 2xa0
 270 298 290 333 290 380 c 0
 290 409 280 430 250 430 c 0
 207 430 178 375 160 345 c 1
 150 345 l 1
 30 420 l 1x90
EndSplineSet
Colour: ffff00
EndChar

StartChar: uni0E0D.descless
Encoding: 60941 60941 72
Width: 1150
VWidth: -360
Flags: W
HStem: -20 180<736.847 823.153> 0 21G<160 410> 440 180<321.829 448.219> 580 20G<830 1100>
VStem: 90 260<150 395.783> 460 270<169.293 428.402> 830 270<169.293 600>
LayerCount: 2
Fore
SplineSet
20 520 m 1x6e
 20 520 178 620 380 620 c 0x6e
 594 620 730 536 730 370 c 2
 730 220 l 2
 730 179 745 160 780 160 c 0
 815 160 830 179 830 220 c 2
 830 600 l 1
 1100 600 l 1
 1100 210 l 2
 1100 83 1012 -20 780 -20 c 0x9e
 548 -20 460 83 460 210 c 2
 460 370 l 2
 460 418 438 440 380 440 c 0
 366 440 344 439 318 436 c 1
 336 419 350 394 350 360 c 2
 350 150 l 1
 410 150 l 1
 410 0 l 1
 200 0 l 2
 120 0 90 42 90 90 c 2
 90 370 l 2
 90 389 86 396 79 397 c 1
 69 395 59 392 50 390 c 1
 20 520 l 1x6e
EndSplineSet
Colour: ffff00
EndChar

StartChar: uni0E10.descless
Encoding: 60944 60944 73
Width: 740
VWidth: 0
Flags: W
HStem: -10 350<190.037 298.12> 440 180<136.196 364.741> 510 170<601.367 720>
VStem: 410 270<201.162 395.154>
AnchorPoint: "th-vow-above" 600 660 basechar 0
AnchorPoint: "th-vow-below" 520 0 basechar 0
LayerCount: 2
Fore
SplineSet
20 550 m 1xd0
 20 550 138 620 340 620 c 0xd0
 396 620 437 608 466 595 c 1
 530 635 623 680 720 680 c 1
 720 510 l 1xb0
 668 510 629 505 600 498 c 1
 636 462 680 397 680 320 c 0
 680 149 555 -10 370 -10 c 0
 240 -10 190 0 190 0 c 1
 110 190 l 1
 50 190 l 1
 50 340 l 1
 240 340 l 2
 282 340 299 320 310 290 c 2
 353 168 l 1
 386 186 410 233 410 310 c 0
 410 395 360 440 270 440 c 0
 198 440 124 416 80 400 c 1
 20 550 l 1xd0
EndSplineSet
Colour: ffff00
EndChar

StartChar: uni0E3F
Encoding: 3647 3647 74
Width: 820
VWidth: 0
Flags: W
HStem: 350 150<340 439.793>
VStem: 60 280<180 350 500 660> 280 210<-120 0 840 960>
LayerCount: 2
Fore
SplineSet
340 500 m 1xc0
 390 500 l 2
 434 500 460 542 460 580 c 0
 460 618 428 660 380 660 c 2
 340 660 l 1
 340 500 l 1xc0
340 180 m 1
 390 180 l 2
 442 180 490 214 490 260 c 0xa0
 490 306 460 350 390 350 c 2
 340 350 l 1
 340 180 l 1
60 0 m 1xc0
 60 840 l 1xc0
 280 840 l 1
 280 960 l 1
 490 960 l 1
 490 837 l 1
 666 818 750 730 750 610 c 0
 750 533 714 472 637 434 c 1
 740 394 790 322 790 220 c 0
 790 60 637 3 490 0 c 1
 490 -120 l 1
 280 -120 l 1
 280 0 l 1xa0
 60 0 l 1xc0
EndSplineSet
Colour: ffff00
EndChar

StartChar: uni0E4E
Encoding: 3662 3662 75
Width: 0
VWidth: 0
Flags: W
HStem: 660 85<-317.304 -215.737> 830 60<-298.569 -240> 960 90<-297.794 -198.817>
VStem: -450 130<750.116 820.744> -430 130<895.793 955.279>
AnchorPoint: "th-vow-above" -140 660 mark 0
LayerCount: 2
Fore
SplineSet
-450 775 m 0xf0
 -450 818 -430 847 -392 865 c 1
 -415 881 -430 903 -430 935 c 0
 -430 1005 -373 1050 -280 1050 c 0
 -213 1050 -170 1018 -150 990 c 1
 -195 930 l 1
 -204 942 -220 960 -251 960 c 0
 -284 960 -300 942 -300 925 c 0xe8
 -300 899 -271 890 -230 890 c 1
 -240 830 l 1
 -286 830 -320 817 -320 785 c 0
 -320 758 -299 745 -270 745 c 0
 -243 745 -228 752 -220 755 c 1
 -200 680 l 1
 -219 671 -252 660 -310 660 c 0
 -382 660 -450 699 -450 775 c 0xf0
EndSplineSet
Colour: ffff00
EndChar

StartChar: uni0E4F
Encoding: 3663 3663 76
Width: 760
VWidth: 0
Flags: W
HStem: -20 80<271.76 488.24> 150 300<296.064 463.936> 540 80<271.76 488.24>
VStem: 60 90<187.634 412.366> 230 300<216.064 383.936> 610 90<187.634 412.366>
CounterMasks: 1 fc
LayerCount: 2
Fore
SplineSet
230 300 m 0
 230 383 297 450 380 450 c 0
 463 450 530 383 530 300 c 0
 530 217 463 150 380 150 c 0
 297 150 230 217 230 300 c 0
150 300 m 0
 150 167 243 60 380 60 c 0
 517 60 610 167 610 300 c 0
 610 433 517 540 380 540 c 0
 243 540 150 433 150 300 c 0
60 300 m 0
 60 477 191 620 380 620 c 0
 569 620 700 477 700 300 c 0
 700 123 569 -20 380 -20 c 0
 191 -20 60 123 60 300 c 0
EndSplineSet
Colour: ffff00
EndChar

StartChar: uni0E50
Encoding: 3664 3664 77
Width: 780
VWidth: 0
Flags: W
HStem: -20 210<320.47 459.53> 410 210<320.47 459.53>
VStem: 30 260<224.512 375.488> 490 260<224.512 375.488>
LayerCount: 2
Fore
SplineSet
290 300 m 0
 290 237 324 190 390 190 c 0
 456 190 490 237 490 300 c 0
 490 363 456 410 390 410 c 0
 324 410 290 363 290 300 c 0
30 300 m 0
 30 477 170 620 390 620 c 0
 610 620 750 477 750 300 c 0
 750 123 610 -20 390 -20 c 0
 170 -20 30 123 30 300 c 0
EndSplineSet
Colour: ffff00
EndChar

StartChar: uni0E51
Encoding: 3665 3665 78
Width: 780
VWidth: 0
Flags: W
HStem: 90 180<192.5 372.836> 410 210<318.803 459.53>
VStem: 30 260<277.174 381.344> 490 260<174.803 375.488>
LayerCount: 2
Fore
SplineSet
30 300 m 0
 30 477 170 620 390 620 c 0
 610 620 750 477 750 300 c 0
 750 88 620 -20 480 -90 c 1
 360 70 l 1
 417 105 490 159 490 300 c 0
 490 363 456 410 390 410 c 0
 324 410 290 367 290 320 c 0
 290 287 310 270 340 270 c 0
 366 270 380 280 380 280 c 1
 400 130 l 1
 358 106 314 90 250 90 c 0
 135 90 30 153 30 300 c 0
EndSplineSet
Colour: ffff00
EndChar

StartChar: uni0E52
Encoding: 3666 3666 79
Width: 870
VWidth: 0
Flags: W
HStem: 0 180<320 590> 430 180<530.231 708.5> 580 20G<360 392.564>
VStem: 60 260<180 750> 590 240<180 424.862>
LayerCount: 2
Fore
SplineSet
60 0 m 1xd8
 60 750 l 1
 320 750 l 1
 320 180 l 1
 590 180 l 1
 590 275 590 330 590 370 c 0
 590 403 580 430 550 430 c 0xd8
 507 430 478 380 460 350 c 1
 450 350 l 1
 360 420 l 1
 360 600 l 1
 370 600 l 1xb8
 458 522 l 1
 482 556 537 610 650 610 c 0
 767 610 830 524 830 420 c 2
 830 0 l 1
 60 0 l 1xd8
EndSplineSet
Colour: ffff00
EndChar

StartChar: uni0E53
Encoding: 3667 3667 80
Width: 840
VWidth: 0
Flags: W
HStem: -10 190<221 402.803> 0 21G<530 790> 590 10G<203.5 304 516.667 790>
VStem: 30 260<212.722 370.843> 530 260<0 380>
LayerCount: 2
Fore
SplineSet
30 300 m 0xb8
 30 470 127 610 280 610 c 0
 328 610 340 600 340 600 c 1
 430 450 l 1
 530 600 l 1
 790 600 l 1
 790 0 l 1
 530 0 l 1x78
 530 380 l 1
 470 280 l 1
 430 280 l 1
 390 280 l 1
 323 380 l 1
 303 361 290 324 290 280 c 0
 290 232 327 180 370 180 c 0
 381 180 391 182 400 185 c 1
 440 20 l 1
 411 1 364 -10 310 -10 c 0
 132 -10 30 129 30 300 c 0xb8
EndSplineSet
Colour: ffff00
EndChar

StartChar: uni0E54
Encoding: 3668 3668 81
Width: 760
VWidth: 0
Flags: W
HStem: 0 180<320.762 420 600 690> 440 180<339.724 469.222>
VStem: 30 260<211.185 396.443>
LayerCount: 2
Fore
SplineSet
30 300 m 0
 30 477 150 620 370 620 c 0
 478 620 520 666 520 750 c 1
 750 750 l 1
 750 573 630 440 410 440 c 0
 325 440 290 380 290 300 c 0
 290 216 324 180 390 180 c 2
 420 180 l 1
 420 257 480 300 480 300 c 1
 660 300 l 1
 660 300 600 241 600 180 c 1
 690 180 l 1
 690 0 l 1
 390 0 l 2
 170 0 30 123 30 300 c 0
EndSplineSet
Colour: ffff00
EndChar

StartChar: uni0E55
Encoding: 3669 3669 82
Width: 760
VWidth: 0
Flags: W
HStem: 0 180<320.762 420 600 690> 440 140<332.385 390.588> 670 90<310.102 389.898>
VStem: 30 260<211.185 396.956> 200 105<584.598 664.204> 395 105<613.446 664.204> 550 200<641.092 750>
LayerCount: 2
Fore
SplineSet
305 625 m 0xee
 305 600 325 580 350 580 c 0
 375 580 395 600 395 625 c 0
 395 650 375 670 350 670 c 0
 325 670 305 650 305 625 c 0xee
30 300 m 0xf6
 30 432 100 523 216 561 c 1
 206 579 200 601 200 625 c 0xee
 200 702 262 760 350 760 c 0
 438 760 500 702 500 625 c 0
 500 621 500 617 499 613 c 1
 539 640 550 686 550 750 c 1
 750 750 l 1
 750 573 630 440 410 440 c 0
 325 440 290 380 290 300 c 0
 290 216 324 180 390 180 c 2
 420 180 l 1
 420 257 480 300 480 300 c 1
 660 300 l 1
 660 300 600 241 600 180 c 1
 690 180 l 1
 690 0 l 1
 390 0 l 2
 170 0 30 123 30 300 c 0xf6
EndSplineSet
Colour: ffff00
EndChar

StartChar: uni0E56
Encoding: 3670 3670 83
Width: 760
VWidth: 0
Flags: W
HStem: -20 180<317.129 432.088> 440 180<281.428 420.276>
VStem: 40 260<119.803 262.443> 470 260<198.069 396.443>
LayerCount: 2
Fore
SplineSet
10 750 m 1
 240 750 l 1
 240 652 282 620 390 620 c 0
 610 620 730 477 730 300 c 0
 730 123 590 -20 370 -20 c 0
 180 -20 40 64 40 180 c 0
 40 250 77 300 160 300 c 2
 310 300 l 1
 302 284 300 258 300 244 c 0
 300 198 323 160 370 160 c 0
 436 160 470 217 470 300 c 0
 470 380 435 440 350 440 c 0
 130 440 10 522 10 750 c 1
EndSplineSet
Colour: ffff00
EndChar

StartChar: uni0E57
Encoding: 3671 3671 84
Width: 1105
VWidth: 0
Flags: W
HStem: -10 190<221 402.803> 0 21G<530 840> 590 10G<203.5 304 516.487 760 830 1060>
VStem: 30 260<212.722 370.843> 530 230<183 380> 830 230<213.87 600>
LayerCount: 2
Fore
SplineSet
30 300 m 0xbc
 30 470 127 610 280 610 c 0
 328 610 340 600 340 600 c 1
 430 452 l 1
 530 600 l 1
 760 600 l 1
 760 183 l 1
 806 193 830 230 830 300 c 2
 830 600 l 1
 1060 600 l 1
 1060 300 l 2
 1060 123 950 0 730 0 c 2
 530 0 l 1x7c
 530 380 l 1
 470 280 l 1
 430 280 l 1
 390 280 l 1
 323 380 l 1
 303 361 290 324 290 280 c 0
 290 232 327 180 370 180 c 0
 381 180 391 182 400 185 c 1
 440 20 l 1
 411 1 364 -10 310 -10 c 0
 132 -10 30 129 30 300 c 0xbc
EndSplineSet
Colour: ffff00
EndChar

StartChar: uni0E58
Encoding: 3672 3672 85
Width: 820
VWidth: 0
Flags: W
HStem: -20 21G<250 344.286 515.714 600> 440 180<329.927 506.287>
VStem: 30 240<197.567 382.489> 560 240<122 262.443>
LayerCount: 2
Fore
SplineSet
30 300 m 0
 30 477 150 620 370 620 c 0
 509 620 550 652 550 750 c 1
 800 750 l 1
 800 522 687 440 410 440 c 0
 325 440 270 380 270 300 c 0
 270 246 284 203 312 180 c 1
 400 300 l 1
 430 300 l 1
 460 300 l 1
 543 186 l 1
 554 201 560 221 560 244 c 0
 560 258 558 284 550 300 c 1
 680 300 l 2
 763 300 800 250 800 180 c 0
 800 64 670 -20 530 -20 c 1
 430 120 l 1
 330 -20 l 1
 170 -20 30 123 30 300 c 0
EndSplineSet
Colour: ffff00
EndChar

StartChar: uni0E59
Encoding: 3673 3673 86
Width: 880
VWidth: 0
Flags: W
HStem: -10 180<216 383.726> 0 21G<503.953 730> 590 20G<262.5 414>
VStem: 30 260<189.235 387.072> 640 230<514.077 750>
LayerCount: 2
Fore
SplineSet
30 280 m 0xb8
 30 464 155 610 370 610 c 0
 458 610 530 600 530 600 c 1
 569 482 l 1
 619 501 640 541 640 600 c 2
 640 750 l 1
 870 750 l 1
 870 600 l 2
 870 452 786 335 630 300 c 1
 730 0 l 1
 510 0 l 1x78
 380 430 l 1
 332 430 290 370 290 290 c 0
 290 210 316 170 350 170 c 0
 361 170 371 172 380 175 c 1
 420 20 l 1
 391 1 344 -10 290 -10 c 0
 142 -10 30 114 30 280 c 0xb8
EndSplineSet
Colour: ffff00
EndChar

StartChar: uni0E5A
Encoding: 3674 3674 87
Width: 900
VWidth: 0
Flags: W
HStem: 0 21G<360 570 630 840> 290 170<148.5 316.845> 580 20G<20 230 380 570 630 840>
VStem: 20 210<470.615 600> 360 210<0 349> 380 190<491.494 600> 630 210<0 600>
LayerCount: 2
Fore
SplineSet
630 0 m 1xf2
 630 600 l 1
 840 600 l 1
 840 0 l 1
 630 0 l 1xf2
20 490 m 1
 20 600 l 1
 230 600 l 1
 230 540 l 2
 230 479 259 460 290 460 c 0
 329 460 362 490 380 535 c 1
 380 600 l 1
 570 600 l 1xf6
 570 0 l 1
 360 0 l 1
 360 349 l 1xfa
 329 317 280 290 210 290 c 0
 87 290 21 386 20 490 c 1
EndSplineSet
Colour: ffff00
EndChar

StartChar: uni0E5B
Encoding: 3675 3675 88
Width: 1110
VWidth: 0
Flags: W
HStem: -20 80<241.76 466.346> 150 300<266.064 433.936> 260 80<978 1080> 540 80<241.76 461.389>
VStem: 30 90<187.634 412.366> 200 300<216.064 383.936> 620 80<510.965 540>
LayerCount: 2
Fore
SplineSet
200 300 m 0xde
 200 383 267 450 350 450 c 0
 433 450 500 383 500 300 c 0
 500 217 433 150 350 150 c 0
 267 150 200 217 200 300 c 0xde
30 300 m 0
 30 477 161 620 350 620 c 0
 447 620 512 588 570 530 c 1
 520 470 l 1
 478 513 422 540 350 540 c 0
 213 540 120 433 120 300 c 0
 120 167 213 60 350 60 c 0
 501 60 575 158 600 300 c 0
 613 372 620 464 620 540 c 1
 700 540 l 1
 792 222 l 1
 865 450 l 1
 935 450 l 1xde
 978 340 l 1
 1080 340 l 1
 1080 260 l 1
 1010 260 l 1
 940 260 l 1xbe
 905 348 l 1
 830 90 l 1
 750 90 l 1
 683 322 l 1
 682 314 681 307 680 300 c 0
 652 108 551 -20 350 -20 c 0
 161 -20 30 123 30 300 c 0
EndSplineSet
Colour: ffff00
EndChar

StartChar: o
Encoding: 111 111 91
Width: 760
VWidth: 0
Flags: W
HStem: -20 210<320.027 439.973> 410 210<320.027 439.973>
VStem: 30 260<219.748 380.252> 470 260<219.748 380.252>
LayerCount: 2
Fore
SplineSet
290 300 m 0
 290 237 323 190 380 190 c 0
 437 190 470 237 470 300 c 0
 470 363 437 410 380 410 c 0
 323 410 290 363 290 300 c 0
30 300 m 0
 30 477 166 620 380 620 c 0
 594 620 730 477 730 300 c 0
 730 123 594 -20 380 -20 c 0
 166 -20 30 123 30 300 c 0
EndSplineSet
Colour: ffff00
EndChar

StartChar: c
Encoding: 99 99 92
Width: 650
VWidth: 0
Flags: W
HStem: -20 200<356.352 543.234> 420 200<356.352 543.234>
VStem: 30 280<225.358 374.642>
LayerCount: 2
Fore
SplineSet
30 300 m 0
 30 477 166 620 380 620 c 0
 549 620 630 550 630 550 c 1
 550 390 l 1
 528 404 499 420 430 420 c 0
 361 420 310 373 310 300 c 0
 310 227 361 180 430 180 c 0
 499 180 528 196 550 210 c 1
 630 50 l 1
 630 50 549 -20 380 -20 c 0
 166 -20 30 123 30 300 c 0
EndSplineSet
Colour: ffff00
EndChar

StartChar: l
Encoding: 108 108 93
Width: 400
VWidth: 0
Flags: W
HStem: -10 850<94.2812 339.948>
VStem: 60 280<22.8515 840>
LayerCount: 2
Fore
SplineSet
60 100 m 2
 60 840 l 1
 340 840 l 1
 340 0 l 1
 340 0 268 -10 200 -10 c 0
 88 -10 60 36 60 100 c 2
EndSplineSet
Colour: ffff00
EndChar

StartChar: u
Encoding: 117 117 94
Width: 775
VWidth: 0
Flags: W
HStem: -10 210<200.5 392.5> 0 21G<465 725> 580 20G<45 325 445 725>
VStem: 45 280<206.495 600> 445 280<219.23 600>
LayerCount: 2
Fore
SplineSet
725 600 m 1xb8
 725 0 l 1
 465 0 l 1x78
 465 102 l 1
 437 56 378 -10 265 -10 c 0
 136 -10 45 74 45 220 c 2
 45 600 l 1
 325 600 l 1
 325 280 l 2
 325 219 341 200 375 200 c 0
 410 200 432 226 445 267 c 1
 445 600 l 1
 725 600 l 1xb8
EndSplineSet
Colour: ffff00
EndChar

StartChar: a
Encoding: 97 97 95
Width: 740
VWidth: 0
Flags: W
HStem: -10 140<177 378.412> 0 21G<450 700> 230 140<177 379.413> 440 180<163.061 403.596>
VStem: 30 270<138.996 221.004> 430 270<137.238 222.762 311 414.524>
LayerCount: 2
Fore
SplineSet
300 180 m 0xbc
 300 145 328 130 360 130 c 0
 392 130 412 138 430 152 c 1
 430 208 l 1
 412 222 392 230 360 230 c 0
 328 230 300 215 300 180 c 0xbc
30 180 m 0
 30 288 104 370 250 370 c 0
 347 370 403 335 430 311 c 1
 430 360 l 2
 430 421 378 440 300 440 c 0
 222 440 144 416 100 400 c 1
 40 550 l 1
 40 550 168 620 370 620 c 0
 584 620 700 536 700 370 c 2
 700 0 l 1
 450 0 l 1x7c
 450 70 l 1
 450 70 396 -10 250 -10 c 0
 104 -10 30 72 30 180 c 0
EndSplineSet
Substitution2: "'aalt' Latin Access All Alternates" a.alt
Substitution2: "'ss20' Latin a & g alt" a.alt
Substitution2: "'ss19' Latin a alt" a.alt
Colour: ffff00
EndChar

StartChar: d
Encoding: 100 100 96
Width: 800
VWidth: 0
Flags: W
HStem: -10 190<231 422.41> 0 21G<490 740> 420 190<231 420.808> 820 20G<470 740>
VStem: 30 280<213.556 386.444> 470 270<191.988 408.012 544 840>
LayerCount: 2
Fore
SplineSet
310 300 m 0xbc
 310 220 352 180 400 180 c 0
 438 180 459 198 470 228 c 1
 470 372 l 1
 459 402 438 420 400 420 c 0
 352 420 310 380 310 300 c 0xbc
30 300 m 0
 30 471 142 610 320 610 c 0
 387 610 435 583 470 544 c 1
 470 840 l 1
 740 840 l 1
 740 0 l 1
 490 0 l 1x7c
 490 82 l 1
 455 29 401 -10 320 -10 c 0
 142 -10 30 129 30 300 c 0
EndSplineSet
Colour: ffff00
EndChar

StartChar: b
Encoding: 98 98 97
Width: 800
VWidth: 0
Flags: W
HStem: -10 190<377.59 569> 0 21G<60 310> 420 190<379.192 569> 820 20G<60 330>
VStem: 60 270<191.988 408.012 544 840> 490 280<213.556 386.444>
LayerCount: 2
Fore
SplineSet
330 228 m 1xbc
 341 198 362 180 400 180 c 0
 448 180 490 220 490 300 c 0
 490 380 448 420 400 420 c 0
 362 420 341 402 330 372 c 1
 330 228 l 1xbc
60 0 m 1x7c
 60 840 l 1
 330 840 l 1
 330 544 l 1
 365 583 413 610 480 610 c 0
 658 610 770 471 770 300 c 0
 770 129 658 -10 480 -10 c 0xbc
 399 -10 345 29 310 82 c 1
 310 0 l 1
 60 0 l 1x7c
EndSplineSet
Colour: ffff00
EndChar

StartChar: e
Encoding: 101 101 98
Width: 730
VWidth: 0
Flags: W
HStem: -20 180<329.843 542.534> 240 110<290 460> 440 180<318.163 437.587>
LayerCount: 2
Fore
SplineSet
284 350 m 1
 460 350 l 1
 460 402 432 440 380 440 c 0
 329 440 296 409 284 350 c 1
30 300 m 0
 30 477 166 620 380 620 c 0
 553 620 700 518 700 320 c 0
 700 275 690 240 690 240 c 1
 290 240 l 1
 308 189 352 160 420 160 c 0
 511 160 558 186 580 200 c 1
 640 60 l 1
 640 60 560 -20 380 -20 c 0
 166 -20 30 123 30 300 c 0
EndSplineSet
Colour: ffff00
EndChar

StartChar: q
Encoding: 113 113 99
Width: 800
VWidth: 0
Flags: W
HStem: -10 190<231 420.808> 420 190<231 422.41> 580 20G<490 740>
VStem: 30 280<213.556 386.444> 470 270<-240 56 191.988 408.012>
LayerCount: 2
Fore
SplineSet
310 300 m 0xd8
 310 220 352 180 400 180 c 0
 438 180 459 198 470 228 c 1
 470 372 l 1
 459 402 438 420 400 420 c 0
 352 420 310 380 310 300 c 0xd8
30 300 m 0
 30 471 142 610 320 610 c 0xd8
 401 610 455 571 490 518 c 1
 490 600 l 1
 740 600 l 1xb8
 740 -240 l 1
 470 -240 l 1
 470 56 l 1
 435 17 387 -10 320 -10 c 0
 142 -10 30 129 30 300 c 0
EndSplineSet
Colour: ffff00
EndChar

StartChar: p
Encoding: 112 112 100
Width: 800
VWidth: 0
Flags: W
HStem: -10 190<379.192 569> 420 190<377.59 569> 580 20G<60 310>
VStem: 60 270<-240 56 191.988 408.012> 490 280<213.556 386.444>
LayerCount: 2
Fore
SplineSet
330 228 m 1xd8
 341 198 362 180 400 180 c 0
 448 180 490 220 490 300 c 0
 490 380 448 420 400 420 c 0
 362 420 341 402 330 372 c 1
 330 228 l 1xd8
60 -240 m 1
 60 600 l 1
 310 600 l 1xb8
 310 518 l 1
 345 571 399 610 480 610 c 0
 658 610 770 471 770 300 c 0
 770 129 658 -10 480 -10 c 0
 413 -10 365 17 330 56 c 1
 330 -240 l 1
 60 -240 l 1
EndSplineSet
Colour: ffff00
EndChar

StartChar: n
Encoding: 110 110 101
Width: 775
VWidth: 0
Flags: W
HStem: 0 21G<50 330 450 730> 400 210<382.5 574.5> 580 20G<50 310>
VStem: 50 280<0 380.77> 450 280<0 393.505>
LayerCount: 2
Fore
SplineSet
50 0 m 1xd8
 50 600 l 1
 310 600 l 1xb8
 310 498 l 1
 338 544 397 610 510 610 c 0
 639 610 730 526 730 380 c 2
 730 0 l 1
 450 0 l 1
 450 320 l 2
 450 381 434 400 400 400 c 0
 365 400 343 374 330 333 c 1
 330 0 l 1
 50 0 l 1xd8
EndSplineSet
Colour: ffff00
EndChar

StartChar: h
Encoding: 104 104 102
Width: 785
VWidth: 0
Flags: W
HStem: 0 21G<60 340 460 740> 400 210<409.184 584.5> 820 20G<60 330>
VStem: 60 280<0 380.77> 60 270<513 840> 460 280<0 393.505>
LayerCount: 2
Fore
SplineSet
60 0 m 1xf4
 60 840 l 1
 330 840 l 1
 330 513 l 1xec
 361 558 419 610 520 610 c 0
 649 610 740 526 740 380 c 2
 740 0 l 1
 460 0 l 1
 460 320 l 2
 460 381 444 400 410 400 c 0
 375 400 353 374 340 333 c 1
 340 0 l 1
 60 0 l 1xf4
EndSplineSet
Colour: ffff00
EndChar

StartChar: s
Encoding: 115 115 103
Width: 630
VWidth: 0
Flags: W
HStem: -20 155<156.269 318.293> 465 155<311.245 469.147>
VStem: 40 270<358.929 461.241> 320 280<139.048 244.603>
LayerCount: 2
Fore
SplineSet
30 50 m 1
 100 190 l 1
 137 161 224 135 265 135 c 0
 298 135 320 143 320 165 c 0
 320 184 300 194 270 205 c 0
 246 214 208 228 180 240 c 0
 122 265 40 312 40 410 c 0
 40 537 153 620 320 620 c 0
 457 620 536 584 590 550 c 1
 520 410 l 1
 488 438 410 465 370 465 c 0
 334 465 310 457 310 435 c 0
 310 416 334 406 360 395 c 0
 382 386 423 370 450 360 c 0
 511 337 600 294 600 191 c 0
 600 45 456 -20 310 -20 c 0
 194 -20 89 16 30 50 c 1
EndSplineSet
Colour: ffff00
EndChar

StartChar: i
Encoding: 105 105 104
Width: 400
VWidth: 0
Flags: W
HStem: 0 21G<60 340> 580 20G<60 340> 660 180<80 320>
VStem: 60 280<0 600> 80 240<660 840>
LayerCount: 2
Fore
SplineSet
80 660 m 1xe8
 80 840 l 1
 320 840 l 1
 320 660 l 1
 80 660 l 1xe8
60 0 m 1xf0
 60 600 l 1
 340 600 l 1
 340 0 l 1
 60 0 l 1xf0
EndSplineSet
Colour: ffff00
EndChar

StartChar: z
Encoding: 122 122 105
Width: 680
VWidth: 0
Flags: W
HStem: 0 160<370 650> 440 160<50 310>
LayerCount: 2
Fore
SplineSet
30 0 m 1
 30 140 l 1
 310 440 l 1
 50 440 l 1
 50 600 l 1
 630 600 l 1
 630 460 l 1
 370 160 l 1
 650 160 l 1
 650 0 l 1
 30 0 l 1
EndSplineSet
Colour: ffff00
EndChar

StartChar: g
Encoding: 103 103 106
Width: 680
VWidth: 0
Flags: W
HStem: -280 150<104.183 339.057> -80 200<230.967 339.99> 160 150<279.89 356.441> 450 150<602 690> 470 150<283.559 358.478>
VStem: 30 240<317.033 462.938> 60 170<10.5 147.485> 340 290<-123.567 -9.5> 370 240<317.062 449.433>
LayerCount: 2
Fore
SplineSet
270 390 m 0xec80
 270 348 282 310 320 310 c 0
 358 310 370 348 370 390 c 0
 370 432 358 470 320 470 c 0
 282 470 270 432 270 390 c 0xec80
30 390 m 0
 30 528 140 620 320 620 c 0xec
 401 620 469 601 518 568 c 1
 550 600 l 1
 690 600 l 1
 690 450 l 1
 602 450 l 1
 607 431 610 411 610 390 c 0xf480
 610 252 500 160 320 160 c 0
 291 160 265 162 240 167 c 1
 234 159 230 152 230 145 c 0
 230 125 249 120 290 120 c 2
 390 120 l 2
 547 120 630 41 630 -60 c 0
 630 -203 516 -280 320 -280 c 0
 145 -280 75 -253 40 -240 c 1
 80 -95 l 1
 117 -111 183 -130 250 -130 c 0
 313 -130 340 -122 340 -105 c 0
 340 -89 327 -80 300 -80 c 2
 235 -80 l 2
 149 -80 60 -39 60 60 c 0xf3
 60 120 92 168 140 202 c 1
 69 241 30 307 30 390 c 0
EndSplineSet
Substitution2: "'aalt' Latin Access All Alternates" g.alt
Substitution2: "'ss20' Latin a & g alt" g.alt
Substitution2: "'ss18' Latin g alt" g.alt
Colour: ffff00
EndChar

StartChar: f
Encoding: 102 102 107
Width: 540
VWidth: 0
Flags: W
HStem: 0 21G<100 370> 440 160<30 100 370 500> 690 180<285.5 492.908>
VStem: 100 270<0 440>
LayerCount: 2
Fore
SplineSet
30 440 m 1
 30 600 l 1
 110 600 l 1
 110 650 l 2
 110 803 221 870 350 870 c 0
 474 870 546 821 560 810 c 1
 490 670 l 1
 481 675 455 690 420 690 c 0
 390 690 360 677 360 630 c 2
 360 600 l 1
 500 600 l 1
 500 440 l 1
 370 440 l 1
 370 0 l 1
 100 0 l 1
 100 440 l 1
 30 440 l 1
EndSplineSet
Colour: ffff00
EndChar

StartChar: t
Encoding: 116 116 108
Width: 530
VWidth: 0
Flags: W
HStem: -20 190<235.5 442.383> 440 160<20 90 360 490>
VStem: 90 270<179.049 440> 100 250<600 780>
LayerCount: 2
Fore
SplineSet
20 440 m 1xe0
 20 600 l 1
 100 600 l 1
 100 780 l 1
 350 780 l 1
 350 600 l 1xd0
 490 600 l 1
 490 440 l 1
 360 440 l 1
 360 240 l 2
 360 190 385 170 410 170 c 0
 439 170 466 189 480 200 c 1
 530 60 l 1
 507 36 426 -20 300 -20 c 0
 171 -20 90 47 90 200 c 2
 90 440 l 1
 20 440 l 1xe0
EndSplineSet
Colour: ffff00
EndChar

StartChar: r
Encoding: 114 114 109
Width: 520
VWidth: 0
Flags: W
HStem: 0 21G<60 340> 405 205<401.132 500> 580 20G<60 320>
VStem: 60 280<0 372.216>
LayerCount: 2
Fore
SplineSet
60 0 m 1xd0
 60 600 l 1
 320 600 l 1xb0
 320 503 l 1
 355 559 411 610 500 610 c 1
 500 399 l 1
 482 403 465 405 450 405 c 0
 396 405 361 379 340 335 c 1
 340 0 l 1
 60 0 l 1xd0
EndSplineSet
Colour: ffff00
EndChar

StartChar: m
Encoding: 109 109 110
Width: 1105
VWidth: 0
Flags: W
HStem: 0 21G<50 320 420 690 790 1060> 410 200<365 532 735 919> 580 20G<50 310>
VStem: 50 270<0 394.962> 420 270<0 394.962> 790 270<0 403.477>
CounterMasks: 1 1c
LayerCount: 2
Fore
SplineSet
50 0 m 1xdc
 50 600 l 1
 310 600 l 1xbc
 310 513 l 1
 341 558 397 610 490 610 c 0
 574 610 640 573 671 499 c 1
 699 545 757 610 860 610 c 0
 978 610 1060 536 1060 390 c 2
 1060 0 l 1
 790 0 l 1
 790 330 l 2
 790 391 776 410 750 410 c 0
 720 410 705 385 690 349 c 1
 690 0 l 1
 420 0 l 1
 420 330 l 2
 420 391 406 410 380 410 c 0
 350 410 335 385 320 349 c 1
 320 0 l 1
 50 0 l 1xdc
EndSplineSet
Colour: ffff00
EndChar

StartChar: j
Encoding: 106 106 111
Width: 400
VWidth: 0
Flags: W
HStem: -250 850<60.0524 305.719> 660 180<80 320>
VStem: 60 280<-217.149 600> 80 240<660 840>
LayerCount: 2
Fore
SplineSet
80 660 m 1xd0
 80 840 l 1
 320 840 l 1
 320 660 l 1
 80 660 l 1xd0
60 -240 m 1xe0
 60 600 l 1
 340 600 l 1
 340 -140 l 2
 340 -204 312 -250 200 -250 c 0
 132 -250 60 -240 60 -240 c 1xe0
EndSplineSet
Colour: ffff00
EndChar

StartChar: k
Encoding: 107 107 112
Width: 770
VWidth: 0
Flags: W
HStem: 0 21G<60 330 460.476 770> 580 20G<451.429 750> 820 20G<60 330>
VStem: 60 270<0 210 390 840>
LayerCount: 2
Fore
SplineSet
60 0 m 1
 60 840 l 1
 330 840 l 1
 330 390 l 1
 370 390 l 1
 460 600 l 1
 750 600 l 1
 590 310 l 1
 770 0 l 1
 470 0 l 1
 370 210 l 1
 330 210 l 1
 330 0 l 1
 60 0 l 1
EndSplineSet
Colour: ffff00
EndChar

StartChar: exclam
Encoding: 33 33 113
Width: 400
VWidth: 0
Flags: W
HStem: 0 200<80 320> 820 20G<60 340>
VStem: 80 240<0 200> 90 220<270 429.6>
LayerCount: 2
Fore
SplineSet
80 0 m 1xe0
 80 200 l 1
 320 200 l 1
 320 0 l 1
 80 0 l 1xe0
60 840 m 1
 340 840 l 1
 310 270 l 1
 90 270 l 1xd0
 60 840 l 1
EndSplineSet
Colour: ffff00
EndChar

StartChar: quotedbl
Encoding: 34 34 114
Width: 580
VWidth: 0
Flags: W
HStem: 480 360<90 220 360 490>
VStem: 90 130<480 540.48> 360 130<480 540.48>
LayerCount: 2
Fore
SplineSet
310 840 m 1
 540 840 l 1
 490 480 l 1
 360 480 l 1
 310 840 l 1
40 840 m 1
 270 840 l 1
 220 480 l 1
 90 480 l 1
 40 840 l 1
EndSplineSet
Colour: ffff00
EndChar

StartChar: numbersign
Encoding: 35 35 115
Width: 960
VWidth: 0
Flags: W
HStem: 0 21G<90 305 450 665> 180 180<30 135 390 495 750 870> 480 180<90 210 465 570 825 930> 820 20G<295 510 655 870>
LayerCount: 2
Fore
SplineSet
390 360 m 1
 540 360 l 1
 570 480 l 1
 420 480 l 1
 390 360 l 1
30 180 m 1
 30 360 l 1
 180 360 l 1
 210 480 l 1
 90 480 l 1
 90 660 l 1
 255 660 l 1
 300 840 l 1
 510 840 l 1
 465 660 l 1
 615 660 l 1
 660 840 l 1
 870 840 l 1
 825 660 l 1
 930 660 l 1
 930 480 l 1
 780 480 l 1
 750 360 l 1
 870 360 l 1
 870 180 l 1
 705 180 l 1
 660 0 l 1
 450 0 l 1
 495 180 l 1
 345 180 l 1
 300 0 l 1
 90 0 l 1
 135 180 l 1
 30 180 l 1
EndSplineSet
Colour: ffff00
EndChar

StartChar: dollar
Encoding: 36 36 116
Width: 760
VWidth: 0
Flags: W
HStem: -120 310<275.388 417.47> 650 310<362.245 482.924>
VStem: 275 210<-120 -12.3181 850 960>
LayerCount: 2
Fore
SplineSet
30 80 m 1
 150 280 l 1
 202 245 270 190 340 190 c 0
 384 190 420 197 420 230 c 0
 420 259 390 270 370 280 c 0
 332 299 266 328 220 355 c 0
 148 397 50 460 50 590 c 0
 50 738 155 814 275 844 c 1
 275 960 l 1
 485 960 l 1
 485 854 l 1
 605 835 685 777 710 760 c 1
 610 580 l 1
 534 625 484 650 430 650 c 0
 392 650 360 644 360 610 c 0
 360 585 388 572 410 560 c 0
 464 532 482 524 530 500 c 0
 610 460 730 403 730 240 c 0
 730 93 621 19 485 -8 c 1
 485 -120 l 1
 275 -120 l 1
 275 -16 l 1
 133 1 56 62 30 80 c 1
EndSplineSet
Colour: ffff00
EndChar

StartChar: percent
Encoding: 37 37 117
Width: 1100
VWidth: 0
Flags: W
HStem: -20 150<801.694 888.306> 0 21G<120 316.19> 310 150<801.694 888.306> 380 150<211.694 298.306> 710 150<211.694 298.306> 820 20G<783.81 980>
VStem: 30 165<546.285 693.715> 315 165<546.285 693.715> 620 165<146.285 293.715> 905 165<146.285 293.715>
LayerCount: 2
Fore
SplineSet
785 220 m 0xa3c0
 785 170 807 130 845 130 c 0
 883 130 905 170 905 220 c 0
 905 270 883 310 845 310 c 0
 807 310 785 270 785 220 c 0xa3c0
620 220 m 0
 620 353 711 460 845 460 c 0
 979 460 1070 353 1070 220 c 0
 1070 87 979 -20 845 -20 c 0
 711 -20 620 87 620 220 c 0
195 620 m 0
 195 570 217 530 255 530 c 0
 293 530 315 570 315 620 c 0
 315 670 293 710 255 710 c 0x1bc0
 217 710 195 670 195 620 c 0
120 0 m 1x47c0
 800 840 l 1
 980 840 l 1
 300 0 l 1
 120 0 l 1x47c0
30 620 m 0
 30 753 121 860 255 860 c 0
 389 860 480 753 480 620 c 0
 480 487 389 380 255 380 c 0x1bc0
 121 380 30 487 30 620 c 0
EndSplineSet
Colour: ffff00
EndChar

StartChar: ampersand
Encoding: 38 38 118
Width: 870
VWidth: 0
Flags: W
HStem: -20 190<319.032 471.328> 690 170<365.088 454.745>
VStem: 40 260<188.733 296.585> 150 200<539.956 676.845> 470 190<550.118 676.961>
LayerCount: 2
Fore
SplineSet
350 610 m 1xd8
 351 566 375 536 400 514 c 1
 437 536 470 572 470 610 c 0
 470 657 450 690 410 690 c 0
 370 690 350 656 350 610 c 1xd8
300 240 m 0xe8
 300 199 334 170 390 170 c 0
 419 170 448 181 478 199 c 1
 350 315 l 1xd8
 324 300 300 277 300 240 c 0xe8
40 210 m 0xe8
 40 348 133 414 209 452 c 1
 178 490 150 542 150 610 c 0
 150 775 278 860 410 860 c 0
 542 860 660 775 660 610 c 0
 660 521 598 449 529 402 c 1
 619 323 l 1
 657 371 690 420 690 420 c 1
 840 330 l 1
 840 330 798 267 753 206 c 1
 840 130 l 1
 720 -20 l 1
 622 69 l 1
 548 16 452 -20 350 -20 c 0xd8
 194 -20 40 57 40 210 c 0xe8
EndSplineSet
Colour: ffff00
EndChar

StartChar: quotesingle
Encoding: 39 39 119
Width: 320
VWidth: 0
Flags: W
HStem: 480 360<90 230>
VStem: 90 140<480 540.48>
LayerCount: 2
Fore
SplineSet
40 840 m 1
 280 840 l 1
 230 480 l 1
 90 480 l 1
 40 840 l 1
EndSplineSet
Colour: ffff00
EndChar

StartChar: parenleft
Encoding: 40 40 120
Width: 480
VWidth: 0
Flags: W
VStem: 30 250<199.243 520.757>
LayerCount: 2
Fore
SplineSet
30 360 m 0
 30 625 163 788 340 890 c 1
 460 740 l 1
 366 665 280 545 280 360 c 0
 280 175 366 55 460 -20 c 1
 340 -170 l 1
 163 -68 30 95 30 360 c 0
EndSplineSet
Colour: ffff00
EndChar

StartChar: parenright
Encoding: 41 41 121
Width: 480
VWidth: 0
Flags: W
VStem: 200 250<199.243 520.757>
LayerCount: 2
Fore
SplineSet
450 360 m 0
 450 95 317 -68 140 -170 c 1
 20 -20 l 1
 114 55 200 175 200 360 c 0
 200 545 114 665 20 740 c 1
 140 890 l 1
 317 788 450 625 450 360 c 0
EndSplineSet
Colour: ffff00
EndChar

StartChar: asterisk
Encoding: 42 42 122
Width: 660
VWidth: 0
Flags: W
HStem: 820 20G<225 435>
LayerCount: 2
Fore
SplineSet
41 554 m 1
 106 754 l 1
 265 660 l 1
 225 840 l 1
 435 840 l 1
 395 660 l 1
 554 754 l 1
 619 554 l 1
 435 536 l 1
 573 414 l 1
 403 290 l 1
 330 460 l 1
 257 290 l 1
 87 414 l 1
 225 536 l 1
 41 554 l 1
EndSplineSet
Colour: ffff00
EndChar

StartChar: plus
Encoding: 43 43 123
Width: 640
VWidth: 0
Flags: W
HStem: 270 180<50 200 440 590> 580 20G<200 440>
VStem: 200 240<120 270 450 600>
LayerCount: 2
Fore
SplineSet
50 270 m 1
 50 450 l 1
 200 450 l 1
 200 600 l 1
 440 600 l 1
 440 450 l 1
 590 450 l 1
 590 270 l 1
 440 270 l 1
 440 120 l 1
 200 120 l 1
 200 270 l 1
 50 270 l 1
EndSplineSet
Colour: ffff00
EndChar

StartChar: comma
Encoding: 44 44 124
Width: 360
VWidth: 0
Flags: W
HStem: -200 90<60 112.784>
VStem: 60 240<0 200>
LayerCount: 2
Fore
SplineSet
40 -110 m 1
 87 -110 143 -86 150 0 c 1
 60 0 l 1
 60 200 l 1
 300 200 l 1
 300 30 l 2
 300 -124 188 -200 60 -200 c 1
 40 -110 l 1
EndSplineSet
Colour: ffff00
EndChar

StartChar: hyphen
Encoding: 45 45 125
Width: 640
VWidth: 0
Flags: W
HStem: 270 180<50 590>
LayerCount: 2
Fore
SplineSet
50 270 m 1
 50 450 l 1
 590 450 l 1
 590 270 l 1
 50 270 l 1
EndSplineSet
Colour: ffff00
EndChar

StartChar: period
Encoding: 46 46 126
Width: 360
VWidth: 0
Flags: W
HStem: 0 200<60 300>
VStem: 60 240<0 200>
LayerCount: 2
Fore
SplineSet
60 0 m 1
 60 200 l 1
 300 200 l 1
 300 0 l 1
 60 0 l 1
EndSplineSet
Colour: ffff00
EndChar

StartChar: slash
Encoding: 47 47 127
Width: 600
VWidth: 0
Flags: W
HStem: 0 21G<30 247.857> 820 20G<352.143 570>
LayerCount: 2
Fore
SplineSet
30 0 m 1
 360 840 l 1
 570 840 l 1
 240 0 l 1
 30 0 l 1
EndSplineSet
Colour: ffff00
EndChar

StartChar: zero
Encoding: 48 48 128
Width: 860
VWidth: 0
Flags: W
HStem: -20 240<370.613 489.387> 620 240<370.613 489.387>
VStem: 30 290<279.184 560.816> 540 290<279.184 560.816>
LayerCount: 2
Fore
SplineSet
320 420 m 0
 320 298 358 220 430 220 c 0
 502 220 540 298 540 420 c 0
 540 542 502 620 430 620 c 0
 358 620 320 542 320 420 c 0
30 420 m 0
 30 658 180 860 430 860 c 0
 680 860 830 658 830 420 c 0
 830 182 680 -20 430 -20 c 0
 180 -20 30 182 30 420 c 0
EndSplineSet
Colour: ffff00
EndChar

StartChar: one
Encoding: 49 49 129
Width: 600
VWidth: 0
Flags: W
HStem: 0 21G<240 520> 820 20G<244 520>
VStem: 240 280<0 600>
LayerCount: 2
Fore
SplineSet
10 690 m 1
 280 840 l 1
 520 840 l 1
 520 0 l 1
 240 0 l 1
 240 600 l 1
 100 510 l 1
 10 690 l 1
EndSplineSet
Colour: ffff00
EndChar

StartChar: two
Encoding: 50 50 130
Width: 800
VWidth: 0
Flags: W
HStem: 0 210<440 750> 640 220<254.189 431.589>
VStem: 450 280<515.737 619.628>
LayerCount: 2
Fore
SplineSet
50 710 m 1
 93 766 217 860 390 860 c 0
 611 860 730 726 730 600 c 0
 730 485 669 434 610 370 c 1
 440 210 l 1
 750 210 l 1
 750 0 l 1
 60 0 l 1
 60 200 l 1
 350 450 l 2
 388 482 450 521 450 570 c 0
 450 614 415 640 349 640 c 0
 272 640 209 590 180 560 c 1
 50 710 l 1
EndSplineSet
Colour: ffff00
EndChar

StartChar: three
Encoding: 51 51 131
Width: 770
VWidth: 0
Flags: W
HStem: -20 210<223.526 432.022> 330 180<220 412.141> 660 200<231.711 410.412>
VStem: 430 280<526.538 638.598> 450 290<208.031 309.628>
LayerCount: 2
Fore
SplineSet
20 90 m 1xe8
 150 260 l 1
 179 231 258 190 350 190 c 0
 425 190 450 220 450 260 c 0xe8
 450 300 415 330 350 330 c 2
 220 330 l 1
 220 510 l 1
 350 510 l 2
 408 510 430 548 430 590 c 0
 430 632 389 660 340 660 c 0
 263 660 199 620 170 590 c 1
 40 720 l 1
 83 776 197 860 370 860 c 0
 591 860 710 735 710 600 c 0xf0
 710 531 681 471 623 427 c 1
 699 385 740 317 740 230 c 0
 740 73 587 -20 370 -20 c 0
 199 -20 104 20 20 90 c 1xe8
EndSplineSet
Colour: ffff00
EndChar

StartChar: four
Encoding: 52 52 132
Width: 800
VWidth: 0
Flags: W
HStem: 0 21G<410 690> 120 180<240 410 690 780> 820 20G<405.556 690>
VStem: 410 280<0 120 300 540>
LayerCount: 2
Fore
SplineSet
240 300 m 1
 410 300 l 1
 410 540 l 1
 240 300 l 1
30 120 m 1
 30 300 l 1
 420 840 l 1
 690 840 l 1
 690 300 l 1
 780 300 l 1
 780 120 l 1
 690 120 l 1
 690 0 l 1
 410 0 l 1
 410 120 l 1
 30 120 l 1
EndSplineSet
Colour: ffff00
EndChar

StartChar: five
Encoding: 53 53 133
Width: 780
VWidth: 0
Flags: W
HStem: -20 210<233.288 441.831> 330 210<328.166 544.5> 630 210<325 690>
VStem: 460 290<207.498 310.252>
LayerCount: 2
Fore
SplineSet
30 90 m 1
 160 260 l 1
 189 231 267 190 359 190 c 0
 434 190 460 220 460 260 c 0
 460 300 425 330 360 330 c 0
 287 330 250 300 250 300 c 1
 60 360 l 1
 110 840 l 1
 690 840 l 1
 690 630 l 1
 325 630 l 1
 312 506 l 1
 348 526 396 540 460 540 c 0
 629 540 750 438 750 290 c 0
 750 78 597 -20 380 -20 c 0
 209 -20 114 20 30 90 c 1
EndSplineSet
Colour: ffff00
EndChar

StartChar: six
Encoding: 54 54 134
Width: 810
VWidth: 0
Flags: W
HStem: -20 210<348.681 471.319> 370 180<372.829 577> 600 21G<607 632.5> 660 200<363.582 561.17>
VStem: 40 280<218.014 346.022> 500 280<217.339 340.7>
LayerCount: 2
Fore
SplineSet
320 280 m 0
 320 232 357 190 410 190 c 0
 463 190 500 232 500 280 c 0
 500 328 463 370 410 370 c 0
 350 370 320 328 320 280 c 0
40 280 m 2
 40 500 l 2
 40 719 179 860 420 860 c 0
 561 860 660 815 720 760 c 1
 620 600 l 1
 594 622 524 660 450 660 c 0
 381 660 310 619 310 540 c 2
 310 486 l 1
 356 523 421 550 510 550 c 0
 644 550 780 471 780 300 c 0
 780 91 627 -20 410 -20 c 0
 193 -20 40 109 40 280 c 2
EndSplineSet
Colour: ffff00
EndChar

StartChar: seven
Encoding: 55 55 135
Width: 720
VWidth: 0
Flags: W
HStem: 0 21G<110 418.485> 630 210<40 390>
LayerCount: 2
Fore
SplineSet
40 630 m 1
 40 840 l 1
 690 840 l 1
 690 660 l 1
 410 0 l 1
 110 0 l 1
 390 630 l 1
 40 630 l 1
EndSplineSet
Colour: ffff00
EndChar

StartChar: eight
Encoding: 56 56 136
Width: 800
VWidth: 0
Flags: W
HStem: -20 180<337.927 462.073> 350 160<348.406 451.594> 690 170<350.873 449.127>
VStem: 30 280<188.841 323.805> 60 270<526.834 670.601> 470 270<526.834 670.601> 490 280<188.841 323.805>
LayerCount: 2
Fore
SplineSet
330 600 m 0xec
 330 546 356 510 400 510 c 0
 444 510 470 546 470 600 c 0
 470 654 441 690 400 690 c 0
 359 690 330 654 330 600 c 0xec
310 250 m 0xf2
 310 200 347 160 400 160 c 0
 453 160 490 200 490 250 c 0
 490 300 465 350 400 350 c 0
 335 350 310 300 310 250 c 0xf2
30 220 m 0
 30 319 82 392 180 433 c 1
 100 474 60 540 60 620 c 0
 60 755 195 860 400 860 c 0
 605 860 740 755 740 620 c 0xec
 740 540 700 474 620 433 c 1
 718 392 770 319 770 220 c 0
 770 63 617 -20 400 -20 c 0
 183 -20 30 63 30 220 c 0
EndSplineSet
Colour: ffff00
EndChar

StartChar: nine
Encoding: 57 57 137
Width: 810
VWidth: 0
Flags: W
HStem: -20 200<248.83 446.418> 290 180<233 437.171> 650 210<338.681 461.319>
VStem: 30 280<499.3 622.661> 490 280<493.978 621.986>
LayerCount: 2
Fore
SplineSet
490 560 m 0
 490 608 453 650 400 650 c 0
 347 650 310 608 310 560 c 0
 310 512 347 470 400 470 c 0
 460 470 490 512 490 560 c 0
770 560 m 2
 770 340 l 2
 770 121 631 -20 390 -20 c 0
 249 -20 150 25 90 80 c 1
 190 240 l 1
 216 218 286 180 360 180 c 0
 429 180 500 221 500 300 c 2
 500 354 l 1
 454 317 389 290 300 290 c 0
 166 290 30 369 30 540 c 0
 30 749 183 860 400 860 c 0
 617 860 770 731 770 560 c 2
EndSplineSet
Colour: ffff00
EndChar

StartChar: colon
Encoding: 58 58 138
Width: 360
VWidth: 0
Flags: W
HStem: 0 200<60 300> 400 200<60 300>
VStem: 60 240<0 200 400 600>
LayerCount: 2
Fore
SplineSet
60 400 m 1
 60 600 l 1
 300 600 l 1
 300 400 l 1
 60 400 l 1
60 0 m 1
 60 200 l 1
 300 200 l 1
 300 0 l 1
 60 0 l 1
EndSplineSet
Colour: ffff00
EndChar

StartChar: semicolon
Encoding: 59 59 139
Width: 360
VWidth: 0
Flags: W
HStem: -200 90<60 112.784> 400 200<60 300>
VStem: 60 240<0 200 400 600>
LayerCount: 2
Fore
SplineSet
40 -110 m 1
 87 -110 143 -86 150 0 c 1
 60 0 l 1
 60 200 l 1
 300 200 l 1
 300 30 l 2
 300 -124 188 -200 60 -200 c 1
 40 -110 l 1
60 400 m 1
 60 600 l 1
 300 600 l 1
 300 400 l 1
 60 400 l 1
EndSplineSet
Colour: ffff00
EndChar

StartChar: less
Encoding: 60 60 140
Width: 570
VWidth: 0
Flags: W
LayerCount: 2
Fore
SplineSet
20 245 m 1
 20 360 l 1
 20 475 l 1
 540 690 l 1
 540 480 l 1
 200 360 l 1
 540 240 l 1
 540 30 l 1
 20 245 l 1
EndSplineSet
Colour: ffff00
EndChar

StartChar: equal
Encoding: 61 61 141
Width: 640
VWidth: 0
Flags: W
HStem: 120 180<50 590> 420 180<50 590>
LayerCount: 2
Fore
SplineSet
50 420 m 1
 50 600 l 1
 590 600 l 1
 590 420 l 1
 50 420 l 1
50 120 m 1
 50 300 l 1
 590 300 l 1
 590 120 l 1
 50 120 l 1
EndSplineSet
Colour: ffff00
EndChar

StartChar: greater
Encoding: 62 62 142
Width: 570
VWidth: 0
Flags: W
LayerCount: 2
Fore
SplineSet
550 475 m 1
 550 360 l 1
 550 245 l 1
 30 30 l 1
 30 240 l 1
 370 360 l 1
 30 480 l 1
 30 690 l 1
 550 475 l 1
EndSplineSet
Colour: ffff00
EndChar

StartChar: question
Encoding: 63 63 143
Width: 690
VWidth: 0
Flags: W
HStem: 0 200<230 470> 620 240<221.016 367.15>
VStem: 230 240<0 200> 380 270<511.05 607.86>
LayerCount: 2
Fore
SplineSet
230 0 m 1xe0
 230 200 l 1
 470 200 l 1
 470 0 l 1
 230 0 l 1xe0
10 730 m 1
 87 798 195 860 340 860 c 0
 519 860 650 752 650 600 c 0xd0
 650 449 495 375 465 362 c 1
 460 270 l 1
 240 270 l 1
 230 450 l 1xe0
 320 474 380 516 380 560 c 0xd0
 380 595 354 620 310 620 c 0
 256 620 199 586 140 540 c 1
 10 730 l 1
EndSplineSet
Colour: ffff00
EndChar

StartChar: at
Encoding: 64 64 144
Width: 1100
VWidth: 0
Flags: W
HStem: -180 80<406.289 729.869> 92 152<411 570.299> 92 108<776.5 943.4> 436 152<417.261 571.446> 780 80<406.289 693.711>
VStem: 30 90<196.3 483.7> 250 224<264.975 415.025> 602 206<251.053 429.551 525 580> 980 90<237.44 483.7>
LayerCount: 2
Fore
SplineSet
474 340 m 0xdf80
 474 276 508 244 546 244 c 0
 577 244 594 259 602 283 c 1
 602 289 602 294 602 300 c 2
 602 398 l 1
 593 421 577 436 546 436 c 0
 508 436 474 404 474 340 c 0xdf80
30 340 m 0
 30 622 253 860 550 860 c 0
 847 860 1070 622 1070 340 c 0
 1070 218 1007 92 814 92 c 0xbf80
 739 92 668 124 631 187 c 1
 603 135 557 92 482 92 c 0xdf80
 340 92 250 203 250 340 c 0
 250 477 340 588 482 588 c 0
 541 588 582 562 610 525 c 1
 610 580 l 1
 808 580 l 1
 808 300 l 2
 808 237 838 200 890 200 c 0xbf80
 943 200 980 249 980 340 c 0
 980 572 797 780 550 780 c 0
 303 780 120 572 120 340 c 0
 120 108 303 -100 550 -100 c 0
 638 -100 704 -87 755 -65 c 1
 780 -135 l 1
 718 -161 656 -180 550 -180 c 0
 253 -180 30 58 30 340 c 0
EndSplineSet
Colour: ffff00
EndChar

StartChar: A
Encoding: 65 65 145
Width: 980
VWidth: 0
Flags: W
HStem: 0 21G<10 316.333 663.667 970> 120 180<404 576> 820 20G<322.381 657.619>
LayerCount: 2
Fore
SplineSet
404 300 m 1
 576 300 l 1
 500 540 l 1
 495 570 l 1
 485 570 l 1
 480 540 l 1
 404 300 l 1
10 0 m 1
 330 840 l 1
 650 840 l 1
 970 0 l 1
 670 0 l 1
 632 120 l 1
 348 120 l 1
 310 0 l 1
 10 0 l 1
EndSplineSet
Colour: ffff00
EndChar

StartChar: B
Encoding: 66 66 146
Width: 880
VWidth: 0
Flags: W
HStem: 0 180<340 522.891> 350 150<340 499.793> 660 180<340 490.414>
VStem: 60 280<180 350 500 660> 520 290<518.211 636.62> 550 300<209.649 322.896>
LayerCount: 2
Fore
SplineSet
340 500 m 1xf8
 450 500 l 2
 494 500 520 542 520 580 c 0
 520 618 488 660 440 660 c 2
 340 660 l 1
 340 500 l 1xf8
340 180 m 1
 450 180 l 2
 502 180 550 214 550 260 c 0xf4
 550 306 520 350 450 350 c 2
 340 350 l 1
 340 180 l 1
60 0 m 1
 60 840 l 1
 480 840 l 2
 704 840 810 745 810 610 c 0xf8
 810 533 774 472 697 434 c 1
 800 394 850 322 850 220 c 0
 850 56 690 0 540 0 c 2
 60 0 l 1
EndSplineSet
Colour: ffff00
EndChar

StartChar: C
Encoding: 67 67 147
Width: 840
VWidth: 0
Flags: W
HStem: -20 240<430.032 655.221> 620 240<430.032 655.221>
VStem: 30 305<313.513 526.487>
LayerCount: 2
Fore
SplineSet
30 420 m 0
 30 658 202 860 500 860 c 0
 699 860 820 760 820 760 c 1
 710 560 l 1
 710 560 643 620 540 620 c 0
 413 620 335 542 335 420 c 0
 335 298 413 220 540 220 c 0
 643 220 710 280 710 280 c 1
 820 80 l 1
 820 80 699 -20 500 -20 c 0
 202 -20 30 182 30 420 c 0
EndSplineSet
Colour: ffff00
EndChar

StartChar: D
Encoding: 68 68 148
Width: 900
VWidth: 0
Flags: W
HStem: 0 210<340 482.762> 630 210<340 482.762>
VStem: 60 280<210 630> 580 290<311.393 528.607>
LayerCount: 2
Fore
SplineSet
340 210 m 1
 390 210 l 2
 508 210 580 301 580 420 c 0
 580 539 508 630 390 630 c 2
 340 630 l 1
 340 210 l 1
60 0 m 1
 60 840 l 1
 400 840 l 2
 708 840 870 658 870 420 c 0
 870 182 708 0 400 0 c 2
 60 0 l 1
EndSplineSet
Colour: ffff00
EndChar

StartChar: E
Encoding: 69 69 149
Width: 790
VWidth: 0
Flags: W
HStem: 0 210<340 750> 310 200<340 700> 630 210<340 740>
VStem: 60 280<210 310 510 630>
LayerCount: 2
Fore
SplineSet
60 0 m 1
 60 840 l 1
 740 840 l 1
 740 630 l 1
 340 630 l 1
 340 510 l 1
 700 510 l 1
 700 310 l 1
 340 310 l 1
 340 210 l 1
 750 210 l 1
 750 0 l 1
 60 0 l 1
EndSplineSet
Colour: ffff00
EndChar

StartChar: F
Encoding: 70 70 150
Width: 740
VWidth: 0
Flags: W
HStem: 0 21G<60 350> 270 200<350 680> 630 210<350 720>
VStem: 60 290<0 270 470 630>
LayerCount: 2
Fore
SplineSet
60 0 m 1
 60 840 l 1
 720 840 l 1
 720 630 l 1
 350 630 l 1
 350 470 l 1
 680 470 l 1
 680 270 l 1
 350 270 l 1
 350 0 l 1
 60 0 l 1
EndSplineSet
Colour: ffff00
EndChar

StartChar: G
Encoding: 71 71 151
Width: 920
VWidth: 0
Flags: W
HStem: -20 210<431.53 619.039> 290 180<480 620> 620 240<429.349 669.923>
VStem: 30 300<298.977 521.245> 620 260<195.367 290>
LayerCount: 2
Fore
SplineSet
30 420 m 0
 30 658 202 860 500 860 c 0
 720 860 840 760 840 760 c 1
 730 560 l 1
 730 560 661 620 540 620 c 0
 413 620 330 542 330 420 c 0
 330 273 413 190 540 190 c 0
 570 190 597 195 620 202 c 1
 620 290 l 1
 480 290 l 1
 480 470 l 1
 820 470 l 2
 865 470 880 457 880 410 c 2
 880 130 l 1
 848 73 711 -20 500 -20 c 0
 202 -20 30 182 30 420 c 0
EndSplineSet
Colour: ffff00
EndChar

StartChar: H
Encoding: 72 72 152
Width: 920
VWidth: 0
Flags: W
HStem: 0 21G<60 340 580 860> 290 220<340 580> 820 20G<60 340 580 860>
VStem: 60 280<0 290 510 840> 580 280<0 290 510 840>
LayerCount: 2
Fore
SplineSet
60 0 m 1
 60 840 l 1
 340 840 l 1
 340 510 l 1
 580 510 l 1
 580 840 l 1
 860 840 l 1
 860 0 l 1
 580 0 l 1
 580 290 l 1
 340 290 l 1
 340 0 l 1
 60 0 l 1
EndSplineSet
Colour: ffff00
EndChar

StartChar: I
Encoding: 73 73 153
Width: 400
VWidth: 0
Flags: W
HStem: 0 21G<60 340> 820 20G<60 340>
VStem: 60 280<0 840>
LayerCount: 2
Fore
SplineSet
60 0 m 1
 60 840 l 1
 340 840 l 1
 340 0 l 1
 60 0 l 1
EndSplineSet
Colour: ffff00
EndChar

StartChar: J
Encoding: 74 74 154
Width: 580
VWidth: 0
Flags: W
HStem: -10 210<117.661 319.5> 820 20G<240 520>
VStem: 240 280<208.683 840>
LayerCount: 2
Fore
SplineSet
-10 80 m 1
 100 240 l 1
 120 222 156 200 190 200 c 0
 215 200 240 213 240 260 c 2
 240 840 l 1
 520 840 l 1
 520 240 l 2
 520 67 389 -10 250 -10 c 0
 111 -10 13 53 -10 80 c 1
EndSplineSet
Colour: ffff00
EndChar

StartChar: K
Encoding: 75 75 155
Width: 890
VWidth: 0
Flags: W
HStem: 0 21G<60 340 558.125 890> 820 20G<60 340 539.032 860>
VStem: 60 280<0 320 530 840>
LayerCount: 2
Fore
SplineSet
60 0 m 1
 60 840 l 1
 340 840 l 1
 340 530 l 1
 380 530 l 1
 550 840 l 1
 860 840 l 1
 610 440 l 1
 890 0 l 1
 570 0 l 1
 380 320 l 1
 340 320 l 1
 340 0 l 1
 60 0 l 1
EndSplineSet
Colour: ffff00
EndChar

StartChar: L
Encoding: 76 76 156
Width: 660
VWidth: 0
Flags: W
HStem: 0 210<340 640> 820 20G<60 340>
VStem: 60 280<210 840>
LayerCount: 2
Fore
SplineSet
60 0 m 1
 60 840 l 1
 340 840 l 1
 340 210 l 1
 640 210 l 1
 640 0 l 1
 60 0 l 1
EndSplineSet
Colour: ffff00
EndChar

StartChar: M
Encoding: 77 77 157
Width: 1080
VWidth: 0
Flags: W
HStem: 0 21G<60 340 740 1020> 820 20G<60 380.303 699.697 1020>
VStem: 60 280<0 460> 740 280<0 460>
LayerCount: 2
Fore
SplineSet
60 0 m 1
 60 840 l 1
 370 840 l 1
 540 510 l 1
 710 840 l 1
 1020 840 l 1
 1020 0 l 1
 740 0 l 1
 740 460 l 1
 590 180 l 1
 490 180 l 1
 340 460 l 1
 340 0 l 1
 60 0 l 1
EndSplineSet
Colour: ffff00
EndChar

StartChar: N
Encoding: 78 78 158
Width: 920
VWidth: 0
Flags: W
HStem: 0 21G<60 340 567.692 860> 820 20G<60 351.429 580 860>
VStem: 60 280<0 390> 580 280<420 840>
LayerCount: 2
Fore
SplineSet
60 0 m 1
 60 840 l 1
 340 840 l 1
 580 420 l 1
 580 840 l 1
 860 840 l 1
 860 0 l 1
 580 0 l 1
 340 390 l 1
 340 0 l 1
 60 0 l 1
EndSplineSet
Colour: ffff00
EndChar

StartChar: O
Encoding: 79 79 159
Width: 1000
VWidth: 0
Flags: W
HStem: -20 240<413.658 586.342> 620 240<413.658 586.342>
VStem: 30 295<311.437 528.563> 675 295<311.437 528.563>
LayerCount: 2
Fore
SplineSet
325 420 m 0
 325 298 400 220 500 220 c 0
 600 220 675 298 675 420 c 0
 675 542 600 620 500 620 c 0
 400 620 325 542 325 420 c 0
30 420 m 0
 30 658 202 860 500 860 c 0
 798 860 970 658 970 420 c 0
 970 182 798 -20 500 -20 c 0
 202 -20 30 182 30 420 c 0
EndSplineSet
Colour: ffff00
EndChar

StartChar: P
Encoding: 80 80 160
Width: 870
VWidth: 0
Flags: W
HStem: 0 21G<60 340> 240 200<340 531.745> 640 200<340 530.723>
VStem: 60 280<0 240 440 640> 570 280<472.417 603.07>
LayerCount: 2
Fore
SplineSet
340 440 m 1
 450 440 l 2
 531 440 570 483 570 540 c 0
 570 597 527 640 450 640 c 2
 340 640 l 1
 340 440 l 1
60 0 m 1
 60 840 l 1
 500 840 l 2
 723 840 850 704 850 540 c 0
 850 376 731 240 500 240 c 2
 340 240 l 1
 340 0 l 1
 60 0 l 1
EndSplineSet
Colour: ffff00
EndChar

StartChar: Q
Encoding: 81 81 161
Width: 1010
VWidth: 0
Flags: W
HStem: -20 240<413.658 541.627> 620 240<413.658 586.342>
VStem: 30 295<311.437 528.563> 675 295<348.121 528.563>
LayerCount: 2
Fore
SplineSet
325 420 m 0
 325 298 400 220 500 220 c 0
 515 220 529 222 543 225 c 1
 455 315 l 1
 575 435 l 1
 665 347 l 1
 671 369 675 394 675 420 c 0
 675 542 600 620 500 620 c 0
 400 620 325 542 325 420 c 0
30 420 m 0
 30 658 202 860 500 860 c 0
 798 860 970 658 970 420 c 0
 970 316 937 219 875 143 c 1
 950 70 l 1
 820 -60 l 1
 733 30 l 1
 667 -2 589 -20 500 -20 c 0
 202 -20 30 182 30 420 c 0
EndSplineSet
Colour: ffff00
EndChar

StartChar: R
Encoding: 82 82 162
Width: 900
VWidth: 0
Flags: W
HStem: 0 21G<60 340 567.5 900> 640 200<340 530.723>
VStem: 60 280<0 240 440 640> 570 280<471.939 603.07>
LayerCount: 2
Fore
SplineSet
340 440 m 1
 450 440 l 2
 531 440 570 483 570 540 c 0
 570 597 527 640 450 640 c 2
 340 640 l 1
 340 440 l 1
60 0 m 1
 60 840 l 1
 500 840 l 2
 723 840 850 704 850 540 c 0
 850 433 799 338 700 285 c 1
 900 0 l 1
 580 0 l 1
 430 240 l 1
 340 240 l 1
 340 0 l 1
 60 0 l 1
EndSplineSet
Colour: ffff00
EndChar

StartChar: S
Encoding: 83 83 163
Width: 820
VWidth: 0
Flags: W
HStem: -20 210<263.639 475.563> 650 210<363.912 581.071>
LayerCount: 2
Fore
SplineSet
30 80 m 1
 140 275 l 1
 212 227 320 190 400 190 c 0
 444 190 480 197 480 230 c 0
 480 259 452 274 430 280 c 0
 372 297 276 328 220 355 c 0
 145 391 50 455 50 585 c 0
 50 778 224 860 420 860 c 0
 599 860 740 780 770 760 c 1
 670 580 l 1
 599 630 498 650 430 650 c 0
 392 650 360 644 360 610 c 0
 360 585 386 567 410 560 c 0
 489 536 532 523 590 500 c 0
 673 468 790 413 790 250 c 0
 790 61 606 -20 410 -20 c 0
 213 -20 65 54 30 80 c 1
EndSplineSet
Colour: ffff00
EndChar

StartChar: T
Encoding: 84 84 164
Width: 740
VWidth: 0
Flags: W
HStem: 0 21G<230 510> 630 210<20 230 510 720>
VStem: 230 280<0 630>
LayerCount: 2
Fore
SplineSet
20 630 m 1
 20 840 l 1
 720 840 l 1
 720 630 l 1
 510 630 l 1
 510 0 l 1
 230 0 l 1
 230 630 l 1
 20 630 l 1
EndSplineSet
Colour: ffff00
EndChar

StartChar: U
Encoding: 85 85 165
Width: 920
VWidth: 0
Flags: W
HStem: -20 210<382.293 537.707> 820 20G<60 340 580 860>
VStem: 60 280<230.953 840> 580 280<230.953 840>
LayerCount: 2
Fore
SplineSet
60 280 m 2
 60 840 l 1
 340 840 l 1
 340 310 l 2
 340 232 391 190 460 190 c 0
 529 190 580 232 580 310 c 2
 580 840 l 1
 860 840 l 1
 860 280 l 2
 860 92 700 -20 460 -20 c 0
 220 -20 60 92 60 280 c 2
EndSplineSet
Colour: ffff00
EndChar

StartChar: V
Encoding: 86 86 166
Width: 980
VWidth: 0
Flags: W
HStem: 0 21G<322.381 657.619> 820 20G<10 316.296 663.704 970>
LayerCount: 2
Fore
SplineSet
10 840 m 1
 310 840 l 1
 480 300 l 1
 485 270 l 1
 495 270 l 1
 500 300 l 1
 670 840 l 1
 970 840 l 1
 650 0 l 1
 330 0 l 1
 10 840 l 1
EndSplineSet
Colour: ffff00
EndChar

StartChar: W
Encoding: 87 87 167
Width: 1370
VWidth: 0
Flags: W
HStem: 0 21G<273.571 594.524 775.476 1096.43> 820 20G<10 334.4 584.8 785.2 1035.6 1360>
LayerCount: 2
Fore
SplineSet
10 840 m 1
 330 840 l 1
 440 340 l 1
 445 310 l 1
 455 310 l 1
 460 340 l 1
 590 840 l 1
 780 840 l 1
 910 340 l 1
 915 310 l 1
 925 310 l 1
 930 340 l 1
 1040 840 l 1
 1360 840 l 1
 1090 0 l 1
 780 0 l 1
 685 420 l 1
 590 0 l 1
 280 0 l 1
 10 840 l 1
EndSplineSet
Colour: ffff00
EndChar

StartChar: X
Encoding: 88 88 168
Width: 940
VWidth: 0
Flags: W
HStem: 0 21G<0 350.4 589.6 940> 820 20G<30 359.231 580.769 910>
LayerCount: 2
Fore
SplineSet
0 0 m 1
 270 430 l 1
 30 840 l 1
 350 840 l 1
 470 580 l 1
 590 840 l 1
 910 840 l 1
 670 430 l 1
 940 0 l 1
 600 0 l 1
 470 250 l 1
 340 0 l 1
 0 0 l 1
EndSplineSet
Colour: ffff00
EndChar

StartChar: Y
Encoding: 89 89 169
Width: 940
VWidth: 0
Flags: W
HStem: 0 21G<330 610> 820 20G<10 339.333 600.667 930>
VStem: 330 280<0 280>
LayerCount: 2
Fore
SplineSet
10 840 m 1
 330 840 l 1
 470 540 l 1
 610 840 l 1
 930 840 l 1
 610 280 l 1
 610 0 l 1
 330 0 l 1
 330 280 l 1
 10 840 l 1
EndSplineSet
Colour: ffff00
EndChar

StartChar: Z
Encoding: 90 90 170
Width: 830
VWidth: 0
Flags: W
HStem: 0 210<410 800> 630 210<60 420>
LayerCount: 2
Fore
SplineSet
30 0 m 1
 30 180 l 1
 420 630 l 1
 60 630 l 1
 60 840 l 1
 770 840 l 1
 770 650 l 1
 410 210 l 1
 800 210 l 1
 800 0 l 1
 30 0 l 1
EndSplineSet
Colour: ffff00
EndChar

StartChar: bracketleft
Encoding: 91 91 171
Width: 480
VWidth: 0
Flags: W
HStem: -150 170<290 440> 700 170<290 440>
VStem: 50 390<-150 20 700 870> 50 240<20 700>
LayerCount: 2
Fore
SplineSet
50 -150 m 1xe0
 50 870 l 1
 440 870 l 1
 440 700 l 1xe0
 290 700 l 1
 290 20 l 1xd0
 440 20 l 1
 440 -150 l 1
 50 -150 l 1xe0
EndSplineSet
Colour: ffff00
EndChar

StartChar: backslash
Encoding: 92 92 172
Width: 600
VWidth: 0
Flags: W
HStem: 0 21G<352.143 570> 820 20G<30 247.857>
LayerCount: 2
Fore
SplineSet
30 840 m 1
 240 840 l 1
 570 0 l 1
 360 0 l 1
 30 840 l 1
EndSplineSet
Colour: ffff00
EndChar

StartChar: bracketright
Encoding: 93 93 173
Width: 480
VWidth: 0
Flags: W
HStem: -150 170<40 190> 700 170<40 190>
VStem: 40 390<-150 20 700 870> 190 240<20 700>
LayerCount: 2
Fore
SplineSet
430 870 m 1xe0
 430 -150 l 1
 40 -150 l 1
 40 20 l 1xe0
 190 20 l 1
 190 700 l 1xd0
 40 700 l 1
 40 870 l 1
 430 870 l 1xe0
EndSplineSet
Colour: ffff00
EndChar

StartChar: asciicircum
Encoding: 94 94 174
Width: 600
VWidth: 0
Flags: W
HStem: 600 240
LayerCount: 2
Fore
SplineSet
0 600 m 1
 0 610 l 1
 215 840 l 1
 300 840 l 1
 385 840 l 1
 600 610 l 1
 600 600 l 1
 425 600 l 1
 300 690 l 1
 175 600 l 1
 0 600 l 1
EndSplineSet
Colour: ffff00
EndChar

StartChar: underscore
Encoding: 95 95 175
Width: 700
VWidth: 0
Flags: W
HStem: -180 180<50 650>
LayerCount: 2
Fore
SplineSet
50 0 m 1
 650 0 l 1
 650 -180 l 1
 50 -180 l 1
 50 0 l 1
EndSplineSet
Colour: ffff00
EndChar

StartChar: grave
Encoding: 96 96 176
Width: 450
VWidth: 0
Flags: W
HStem: 600 240
LayerCount: 2
Fore
SplineSet
-20 830 m 1
 -20 840 l 1
 230 840 l 1
 430 610 l 1
 430 600 l 1
 260 600 l 1
 -20 830 l 1
EndSplineSet
Colour: ffff00
EndChar

StartChar: v
Encoding: 118 118 177
Width: 780
VWidth: 0
Flags: W
HStem: 0 21G<222.667 557.333> 580 20G<10 304.571 475.429 770>
LayerCount: 2
Fore
SplineSet
10 600 m 1
 300 600 l 1
 380 250 l 1
 385 220 l 1
 395 220 l 1
 400 250 l 1
 480 600 l 1
 770 600 l 1
 550 0 l 1
 230 0 l 1
 10 600 l 1
EndSplineSet
Colour: ffff00
EndChar

StartChar: w
Encoding: 119 119 178
Width: 1050
VWidth: 0
Flags: W
HStem: 0 21G<174.333 465.2 584.8 875.667> 580 20G<10 298.333 445.152 604.849 751.667 1040>
LayerCount: 2
Fore
SplineSet
10 600 m 1
 295 600 l 1
 350 270 l 1
 355 230 l 1
 365 230 l 1
 370 270 l 1
 450 600 l 1
 525 600 l 1
 600 600 l 1
 680 270 l 1
 685 230 l 1
 695 230 l 1
 700 270 l 1
 755 600 l 1
 1040 600 l 1
 870 0 l 1
 590 0 l 1
 525 250 l 1
 460 0 l 1
 180 0 l 1
 10 600 l 1
EndSplineSet
Colour: ffff00
EndChar

StartChar: x
Encoding: 120 120 179
Width: 760
VWidth: 0
Flags: W
HStem: 0 21G<0 308.889 451.111 760> 580 20G<20 317.778 442.222 740>
LayerCount: 2
Fore
SplineSet
0 0 m 1
 200 310 l 1
 20 600 l 1
 310 600 l 1
 380 420 l 1
 450 600 l 1
 740 600 l 1
 560 310 l 1
 760 0 l 1
 460 0 l 1
 380 180 l 1
 300 0 l 1
 0 0 l 1
EndSplineSet
Colour: ffff00
EndChar

StartChar: y
Encoding: 121 121 180
Width: 780
VWidth: 0
Flags: W
HStem: -260 170<116.051 278.386> 580 20G<10 304.571 475.429 770>
LayerCount: 2
Fore
SplineSet
10 600 m 1
 300 600 l 1
 380 250 l 1
 385 220 l 1
 390 220 l 1
 395 220 l 1
 400 250 l 1
 480 600 l 1
 770 600 l 1
 550 0 l 1
 492 -210 369 -260 250 -260 c 0
 165 -260 94 -240 50 -220 c 1
 110 -60 l 1
 110 -60 154 -90 210 -90 c 0
 275 -90 292 -54 309 -3 c 1
 256 9 215 41 185 120 c 1
 10 600 l 1
EndSplineSet
Colour: ffff00
EndChar

StartChar: braceleft
Encoding: 123 123 181
Width: 480
VWidth: 0
Flags: W
HStem: -150 170<362.026 450> 700 170<362.026 450>
VStem: 120 330<-89.6484 20 700 809.648> 120 240<21.1559 266.547 453.453 698.844>
LayerCount: 2
Fore
SplineSet
10 330 m 1xd0
 10 360 l 1
 10 390 l 1
 10 390 120 420 120 540 c 2xd0
 120 720 l 2
 120 816 186 870 280 870 c 2
 450 870 l 1
 450 700 l 1xe0
 400 700 l 2
 364 700 360 685 360 640 c 2
 360 510 l 2
 360 395 280 360 280 360 c 1
 280 360 360 325 360 210 c 2
 360 80 l 2xd0
 360 35 364 20 400 20 c 2
 450 20 l 1
 450 -150 l 1
 280 -150 l 2
 186 -150 120 -96 120 0 c 2xe0
 120 180 l 2
 120 300 10 330 10 330 c 1xd0
EndSplineSet
Colour: ffff00
EndChar

StartChar: bar
Encoding: 124 124 182
Width: 360
VWidth: 0
Flags: W
VStem: 75 210<-150 870>
LayerCount: 2
Fore
SplineSet
75 -150 m 1
 75 870 l 1
 285 870 l 1
 285 -150 l 1
 75 -150 l 1
EndSplineSet
Colour: ffff00
EndChar

StartChar: braceright
Encoding: 125 125 183
Width: 480
VWidth: 0
Flags: W
HStem: -150 170<30 117.974> 700 170<30 117.974>
VStem: 30 330<-89.6484 20 700 809.648> 120 240<21.1559 266.547 453.453 698.844>
LayerCount: 2
Fore
SplineSet
470 390 m 1xd0
 470 360 l 1
 470 330 l 1
 470 330 360 300 360 180 c 2xd0
 360 0 l 2
 360 -96 294 -150 200 -150 c 2
 30 -150 l 1
 30 20 l 1xe0
 80 20 l 2
 116 20 120 35 120 80 c 2
 120 210 l 2
 120 325 200 360 200 360 c 1
 200 360 120 395 120 510 c 2
 120 640 l 2xd0
 120 685 116 700 80 700 c 2
 30 700 l 1
 30 870 l 1
 200 870 l 2
 294 870 360 816 360 720 c 2xe0
 360 540 l 2
 360 420 470 390 470 390 c 1xd0
EndSplineSet
Colour: ffff00
EndChar

StartChar: asciitilde
Encoding: 126 126 184
Width: 650
VWidth: 0
Flags: W
HStem: 240 180<339.233 471.865> 300 180<178.135 310.767>
LayerCount: 2
Fore
SplineSet
40 300 m 1x40
 64 437 140 480 220 480 c 0x40
 267 480 295 466 330 450 c 1
 371 433 397 420 430 420 c 0x80
 458 420 476 443 490 480 c 1x40
 610 420 l 1
 586 283 510 240 430 240 c 0x80
 383 240 355 254 320 270 c 1
 279 287 253 300 220 300 c 0x40
 192 300 174 277 160 240 c 1x80
 40 300 l 1x40
EndSplineSet
Colour: ffff00
EndChar

StartChar: Euro
Encoding: 8364 8364 185
Width: 810
VWidth: 0
Flags: W
HStem: -20 240<456.198 647.015> 275 120<20 80 426 600> 445 120<20 80 426 600> 620 240<456.198 647.015>
LayerCount: 2
Fore
SplineSet
20 275 m 1
 20 395 l 1
 80 395 l 1
 80 403 80 412 80 420 c 0
 80 428 80 437 80 445 c 1
 20 445 l 1
 20 565 l 1
 98 565 l 1
 143 735 275 860 510 860 c 0
 709 860 800 760 800 760 c 1
 690 560 l 1
 690 560 643 620 550 620 c 0
 491 620 451 600 426 565 c 1
 600 565 l 1
 600 445 l 1
 391 445 l 1
 390 437 390 429 390 420 c 0
 390 411 390 403 391 395 c 1
 600 395 l 1
 600 275 l 1
 426 275 l 1
 451 240 491 220 550 220 c 0
 643 220 690 280 690 280 c 1
 800 80 l 1
 800 80 709 -20 510 -20 c 0
 275 -20 143 105 98 275 c 1
 20 275 l 1
EndSplineSet
Colour: ffff00
EndChar

StartChar: quoteleft
Encoding: 8216 8216 186
Width: 360
VWidth: 0
Flags: W
HStem: 770 90<247.216 300>
VStem: 60 240<460 660>
LayerCount: 2
Fore
SplineSet
320 770 m 1
 273 770 217 746 210 660 c 1
 300 660 l 1
 300 460 l 1
 60 460 l 1
 60 630 l 2
 60 784 172 860 300 860 c 1
 320 770 l 1
EndSplineSet
Colour: ff00ff
EndChar

StartChar: quoteright
Encoding: 8217 8217 187
Width: 360
VWidth: 0
Flags: W
HStem: 440 90<60 112.784> 820 20G<60 300>
VStem: 60 240<640 840>
LayerCount: 2
Fore
SplineSet
40 530 m 1
 87 530 143 554 150 640 c 1
 60 640 l 1
 60 840 l 1
 300 840 l 1
 300 670 l 2
 300 516 188 440 60 440 c 1
 40 530 l 1
EndSplineSet
Colour: ff00ff
EndChar

StartChar: quotedblleft
Encoding: 8220 8220 188
Width: 660
VWidth: 0
Flags: W
HStem: 460 200<210 300 510 600> 770 90<247.216 300 547.216 600>
VStem: 60 240<460 660> 360 240<460 660>
LayerCount: 2
Fore
SplineSet
620 770 m 1
 573 770 517 746 510 660 c 1
 600 660 l 1
 600 460 l 1
 360 460 l 1
 360 630 l 2
 360 784 472 860 600 860 c 1
 620 770 l 1
320 770 m 1
 273 770 217 746 210 660 c 1
 300 660 l 1
 300 460 l 1
 60 460 l 1
 60 630 l 2
 60 784 172 860 300 860 c 1
 320 770 l 1
EndSplineSet
Colour: ff00ff
EndChar

StartChar: quotedblright
Encoding: 8221 8221 189
Width: 660
VWidth: 0
Flags: W
HStem: 440 90<60 112.784 360 412.784> 640 200<60 150 360 450>
VStem: 60 240<640 840> 360 240<640 840>
LayerCount: 2
Fore
SplineSet
340 530 m 1
 387 530 443 554 450 640 c 1
 360 640 l 1
 360 840 l 1
 600 840 l 1
 600 670 l 2
 600 516 488 440 360 440 c 1
 340 530 l 1
40 530 m 1
 87 530 143 554 150 640 c 1
 60 640 l 1
 60 840 l 1
 300 840 l 1
 300 670 l 2
 300 516 188 440 60 440 c 1
 40 530 l 1
EndSplineSet
Colour: ff00ff
EndChar

StartChar: bullet
Encoding: 8226 8226 190
Width: 400
VWidth: 0
Flags: W
HStem: 210 300<116.064 283.936>
VStem: 50 300<276.064 443.936>
LayerCount: 2
Fore
SplineSet
50 360 m 0
 50 443 117 510 200 510 c 0
 283 510 350 443 350 360 c 0
 350 277 283 210 200 210 c 0
 117 210 50 277 50 360 c 0
EndSplineSet
Colour: ffff00
EndChar

StartChar: endash
Encoding: 8211 8211 191
Width: 770
VWidth: 0
Flags: W
HStem: 270 180<50 730>
LayerCount: 2
Fore
SplineSet
50 270 m 1
 50 450 l 1
 730 450 l 1
 730 270 l 1
 50 270 l 1
EndSplineSet
Colour: ffff00
EndChar

StartChar: emdash
Encoding: 8212 8212 192
Width: 1100
VWidth: 0
Flags: W
HStem: 270 180<50 1060>
LayerCount: 2
Fore
SplineSet
50 270 m 1
 50 450 l 1
 1060 450 l 1
 1060 270 l 1
 50 270 l 1
EndSplineSet
Colour: ffff00
EndChar

StartChar: ellipsis
Encoding: 8230 8230 193
Width: 1020
VWidth: 0
Flags: W
HStem: 0 200<60 300 390 630 720 960>
VStem: 60 240<0 200> 390 240<0 200> 720 240<0 200>
CounterMasks: 1 70
LayerCount: 2
Fore
SplineSet
720 0 m 1
 720 200 l 1
 960 200 l 1
 960 0 l 1
 720 0 l 1
390 0 m 1
 390 200 l 1
 630 200 l 1
 630 0 l 1
 390 0 l 1
60 0 m 1
 60 200 l 1
 300 200 l 1
 300 0 l 1
 60 0 l 1
EndSplineSet
Colour: ffff00
EndChar

StartChar: uni0E33.alt
Encoding: 60979 60979 195
Width: 540
VWidth: 0
Flags: W
HStem: 0 21G<210 490> 410 200<87.5968 333> 670 90<-571.354 -498.646> 850 90<-571.354 -498.646>
VStem: -710 135<762.68 847.32> -495 135<762.68 847.32> 210 280<0 400.887>
LayerCount: 2
Fore
SplineSet
-575 805 m 0
 -575 775 -557 760 -535 760 c 0
 -513 760 -495 775 -495 805 c 0
 -495 835 -513 850 -535 850 c 0
 -557 850 -575 835 -575 805 c 0
-710 805 m 0
 -710 884 -649 940 -535 940 c 0
 -421 940 -360 884 -360 805 c 0
 -360 726 -421 670 -535 670 c 0
 -649 670 -710 726 -710 805 c 0
0 540 m 1
 0 540 84 610 250 610 c 0
 416 610 490 532 490 380 c 2
 490 0 l 1
 210 0 l 1
 210 360 l 2
 210 398 196 410 160 410 c 0
 124 410 72 394 50 380 c 1
 0 540 l 1
EndSplineSet
Colour: ffff00
EndChar

StartChar: uni0E31.left
Encoding: 60977 60977 196
Width: 0
VWidth: 0
Flags: W
HStem: 690 150<-595 -380>
VStem: -800 420<719.307 837.661>
LayerCount: 2
Fore
SplineSet
-800 780 m 0
 -800 836 -765 900 -765 900 c 1
 -575 900 l 1
 -595 840 l 1
 -380 840 l 1
 -380 690 l 1
 -690 690 l 2
 -751 690 -800 722 -800 780 c 0
EndSplineSet
Colour: ffff00
EndChar

StartChar: uni0E34.left
Encoding: 60980 60980 197
Width: 0
VWidth: 0
Flags: W
HStem: 690 150<-810 -390>
LayerCount: 2
Fore
SplineSet
-810 690 m 1
 -810 840 l 1
 -390 840 l 1
 -390 690 l 1
 -810 690 l 1
EndSplineSet
Colour: ffff00
EndChar

StartChar: uni0E35.left
Encoding: 60981 60981 198
Width: 0
VWidth: 0
Flags: W
HStem: 690 230<-560 -370> 690 150<-820 -572.419>
VStem: -560 190<800 920>
LayerCount: 2
Fore
SplineSet
-820 690 m 1x60
 -820 840 l 1
 -640 840 l 2x60
 -584 840 -560 800 -560 800 c 1
 -560 920 l 1
 -370 920 l 1
 -370 690 l 1xa0
 -820 690 l 1x60
EndSplineSet
Colour: ffff00
EndChar

StartChar: uni0E36.left
Encoding: 60982 60982 199
Width: 0
VWidth: 0
Flags: W
HStem: 690 150<-830 -631.6> 690 80<-523.326 -459.332> 850 80<-521.997 -458.003>
VStem: -620 95<798.443 848.396> -455 95<771.604 848.396>
LayerCount: 2
Fore
SplineSet
-525 810 m 0x78
 -525 784 -511 770 -490 770 c 0
 -469 770 -455 784 -455 810 c 0
 -455 836 -469 850 -490 850 c 0
 -511 850 -525 836 -525 810 c 0x78
-830 690 m 1xb8
 -830 840 l 1
 -680 840 l 2xb8
 -654 840 -633 819 -619 798 c 1
 -620 802 -620 806 -620 810 c 0
 -620 882 -566 930 -490 930 c 0
 -414 930 -360 882 -360 810 c 0
 -360 738 -414 690 -490 690 c 2x78
 -830 690 l 1xb8
EndSplineSet
Colour: ffff00
EndChar

StartChar: uni0E37.left
Encoding: 60983 60983 200
Width: 0
VWidth: 0
Flags: W
HStem: 690 230<-680 -550 -500 -370> 690 150<-830 -690.279> 690 100<-550 -500>
VStem: -680 130<800 920> -500 130<790 920>
LayerCount: 2
Fore
SplineSet
-830 690 m 1x58
 -830 840 l 1
 -750 840 l 2x58
 -699 840 -680 800 -680 800 c 1
 -680 920 l 1
 -550 920 l 1x98
 -550 790 l 1
 -500 790 l 1x38
 -500 920 l 1
 -370 920 l 1
 -370 690 l 1x98
 -830 690 l 1x58
EndSplineSet
Colour: ffff00
EndChar

StartChar: uni0E38.low
Encoding: 60984 60984 201
Width: 0
VWidth: -200
Flags: W
HStem: -490 220<-280 -88.7419> -390 120<-330 -280>
VStem: -280 200<-490 -390>
LayerCount: 2
Fore
SplineSet
-330 -270 m 1x60
 -140 -270 l 2
 -104 -270 -80 -294 -80 -330 c 2
 -80 -490 l 1
 -280 -490 l 1xa0
 -280 -390 l 1
 -330 -390 l 1
 -330 -270 l 1x60
EndSplineSet
Colour: ffff00
EndChar

StartChar: uni0E39.low
Encoding: 60985 60985 202
Width: 0
VWidth: 0
Flags: W
HStem: -490 90<-320 -250> -390 120<-550 -500>
VStem: -250 180<-400 -270>
LayerCount: 2
Fore
SplineSet
-550 -270 m 1
 -380 -270 l 2
 -344 -270 -320 -294 -320 -330 c 2
 -320 -400 l 1
 -250 -400 l 1
 -250 -270 l 1
 -70 -270 l 1
 -70 -430 l 2
 -70 -465 -100 -490 -160 -490 c 2
 -410 -490 l 2
 -470 -490 -500 -465 -500 -430 c 2
 -500 -390 l 1
 -550 -390 l 1
 -550 -270 l 1
EndSplineSet
Colour: ffff00
EndChar

StartChar: uni0E3A.low
Encoding: 60986 60986 203
Width: 0
VWidth: 0
Flags: W
HStem: -430 160<-300 -100>
VStem: -300 200<-430 -270>
LayerCount: 2
Fore
SplineSet
-300 -270 m 1
 -100 -270 l 1
 -100 -430 l 1
 -300 -430 l 1
 -300 -270 l 1
EndSplineSet
Colour: ffff00
EndChar

StartChar: uni0E47.left
Encoding: 60999 60999 204
Width: 0
VWidth: 0
Flags: W
HStem: 670 115<-651.593 -558.694> 680 140<-500 -410> 865 115<-650.487 -360>
VStem: -820 165<790.176 859.824>
LayerCount: 2
Fore
SplineSet
-820 825 m 0xb0
 -820 907 -763 980 -645 980 c 2
 -360 980 l 1
 -360 865 l 1
 -605 865 l 2
 -632 865 -655 852 -655 825 c 0
 -655 798 -632 785 -605 785 c 0xb0
 -570 785 -559 804 -555 820 c 1
 -410 820 l 1
 -350 690 l 1
 -350 680 l 1
 -500 680 l 1x70
 -524 741 l 1
 -540 705 -575 670 -645 670 c 0
 -763 670 -820 743 -820 825 c 0xb0
EndSplineSet
Colour: ffff00
EndChar

StartChar: uni0E4D.high
Encoding: 61005 61005 205
Width: 0
VWidth: 300
Flags: W
HStem: 920 75<-251.446 -188.554> 1075 75<-251.446 -188.554>
VStem: -370 115<996.734 1073.27> -185 115<996.734 1073.27>
AnchorPoint: "th-mkmk" 0 0 mark 0
LayerCount: 2
Fore
SplineSet
-255 1035 m 0
 -255 1011 -242 995 -220 995 c 0
 -198 995 -185 1011 -185 1035 c 0
 -185 1059 -198 1075 -220 1075 c 0
 -242 1075 -255 1059 -255 1035 c 0
-370 1035 m 0
 -370 1100 -315 1150 -220 1150 c 0
 -125 1150 -70 1100 -70 1035 c 0
 -70 970 -125 920 -220 920 c 0
 -315 920 -370 970 -370 1035 c 0
EndSplineSet
Substitution2: "TH Nikhahit High-Left" uni0E4D.high.left
Colour: ffff00
EndChar

StartChar: uni0E48.low
Encoding: 61000 61000 206
Width: 0
VWidth: 0
Flags: W
HStem: 690 230<-290 -90>
VStem: -290 200<690 920>
AnchorPoint: "th-vow-above" -70 660 mark 0
LayerCount: 2
Fore
SplineSet
-290 690 m 1
 -290 920 l 1
 -90 920 l 1
 -90 690 l 1
 -290 690 l 1
EndSplineSet
Substitution2: "TH Tone Low to High" uni0E48
Colour: ffff00
EndChar

StartChar: uni0E49.low
Encoding: 61001 61001 207
Width: 0
VWidth: 0
Flags: W
HStem: 690 120<-245 -70> 810 110<-440 -380>
VStem: -440 250<834.844 917.495>
AnchorPoint: "th-vow-above" -70 660 mark 0
LayerCount: 2
Fore
SplineSet
-460 730 m 0xa0
 -460 747 -448 759 -435 770 c 1
 -380 810 l 1
 -440 810 l 1
 -440 920 l 1
 -230 920 l 2x60
 -204 920 -190 898 -190 880 c 0
 -190 861 -200 848 -210 840 c 2
 -245 810 l 1
 -70 810 l 1
 -70 690 l 1
 -420 690 l 2
 -445 690 -460 709 -460 730 c 0xa0
EndSplineSet
Substitution2: "TH Tone Low to High" uni0E49
Colour: ffff00
EndChar

StartChar: uni0E4A.low
Encoding: 61002 61002 208
Width: 0
VWidth: 0
Flags: W
HStem: 690 230<-320 -150> 690 100<-150 -70> 810 120<-464 -362.06>
VStem: -560 170<690.669 809.067> -320 170<790 799.281 851 920>
AnchorPoint: "th-vow-above" -70 660 mark 0
LayerCount: 2
Fore
SplineSet
-560 780 m 0x78
 -560 869 -503 930 -425 930 c 0x78
 -378 930 -344 892 -320 851 c 1
 -320 920 l 1
 -150 920 l 1x98
 -150 790 l 1
 -70 790 l 1
 -70 690 l 1x58
 -320 690 l 1x98
 -320 763 l 1
 -334 789 -352 810 -365 810 c 0
 -385 810 -390 782 -390 760 c 0
 -390 729 -380 701 -375 690 c 1
 -545 690 l 1
 -551 707 -560 742 -560 780 c 0x78
EndSplineSet
Substitution2: "TH Tone Low to High" uni0E4A
Colour: ffff00
EndChar

StartChar: uni0E4B.low
Encoding: 61003 61003 209
Width: 0
VWidth: 0
Flags: W
HStem: 690 230<-285 -115> 755 100<-370 -285 -115 -30>
VStem: -285 170<690 755 855 920>
AnchorPoint: "th-vow-above" -70 660 mark 0
LayerCount: 2
Fore
SplineSet
-370 755 m 1x60
 -370 855 l 1
 -285 855 l 1x60
 -285 920 l 1
 -115 920 l 1xa0
 -115 855 l 1
 -30 855 l 1
 -30 755 l 1
 -115 755 l 1x60
 -115 690 l 1
 -285 690 l 1xa0
 -285 755 l 1
 -370 755 l 1x60
EndSplineSet
Substitution2: "TH Tone Low to High" uni0E4B
Colour: ffff00
EndChar

StartChar: uni0E4C.low
Encoding: 61004 61004 210
Width: 0
VWidth: 0
Flags: W
HStem: 770 140<-195 -40>
VStem: -380 340<772.014 880.693>
AnchorPoint: "th-vow-above" -70 660 mark 0
LayerCount: 2
Fore
SplineSet
-380 820 m 0
 -380 878 -331 910 -270 910 c 2
 -40 910 l 1
 -40 770 l 1
 -195 770 l 1
 -170 710 l 1
 -345 710 l 1
 -345 710 -380 764 -380 820 c 0
EndSplineSet
Substitution2: "TH Tone Low to High" uni0E4C
Colour: ffff00
EndChar

StartChar: uni0E48.low.left
Encoding: 986696 986696 211
Width: 0
VWidth: 0
Flags: W
HStem: 690 230<-610 -410>
VStem: -610 200<690 920>
LayerCount: 2
Fore
SplineSet
-610 690 m 1
 -610 920 l 1
 -410 920 l 1
 -410 690 l 1
 -610 690 l 1
EndSplineSet
Colour: ffff00
EndChar

StartChar: uni0E49.low.left
Encoding: 986697 986697 212
Width: 0
VWidth: 0
Flags: W
HStem: 690 120<-545 -370> 810 110<-740 -680>
VStem: -740 250<834.844 917.495>
LayerCount: 2
Fore
SplineSet
-760 730 m 0xa0
 -760 747 -748 759 -735 770 c 1
 -680 810 l 1
 -740 810 l 1
 -740 920 l 1
 -530 920 l 2x60
 -504 920 -490 898 -490 880 c 0
 -490 861 -500 848 -510 840 c 2
 -545 810 l 1
 -370 810 l 1
 -370 690 l 1
 -720 690 l 2
 -745 690 -760 709 -760 730 c 0xa0
EndSplineSet
Colour: ffff00
EndChar

StartChar: uni0E4A.low.left
Encoding: 986698 986698 213
Width: 0
VWidth: 0
Flags: W
HStem: 690 230<-580 -430> 690 100<-430 -360> 815 115<-714 -617.187>
VStem: -800 150<690.669 813.49> -580 150<790 800.673 844 920>
LayerCount: 2
Fore
SplineSet
-800 780 m 0x78
 -800 869 -753 930 -675 930 c 0x78
 -626 930 -598 887 -580 844 c 1
 -580 920 l 1
 -430 920 l 1x98
 -430 790 l 1
 -360 790 l 1
 -360 690 l 1x58
 -580 690 l 1x98
 -580 746 l 1
 -592 782 -610 815 -625 815 c 0
 -645 815 -650 791 -650 760 c 0
 -650 729 -640 701 -635 690 c 1
 -785 690 l 1
 -791 707 -800 742 -800 780 c 0x78
EndSplineSet
Colour: ffff00
EndChar

StartChar: uni0E4B.low.left
Encoding: 986699 986699 214
Width: 0
VWidth: 0
Flags: W
HStem: 690 230<-635 -465> 755 100<-720 -635 -465 -380>
VStem: -635 170<690 755 855 920>
LayerCount: 2
Fore
SplineSet
-720 755 m 1x60
 -720 855 l 1
 -635 855 l 1x60
 -635 920 l 1
 -465 920 l 1xa0
 -465 855 l 1
 -380 855 l 1
 -380 755 l 1
 -465 755 l 1x60
 -465 690 l 1
 -635 690 l 1xa0
 -635 755 l 1
 -720 755 l 1x60
EndSplineSet
Colour: ffff00
EndChar

StartChar: uni0E4C.low.left
Encoding: 986700 986700 215
Width: 0
VWidth: 0
Flags: W
HStem: 770 140<-535 -380>
VStem: -720 340<772.014 880.693>
LayerCount: 2
Fore
SplineSet
-720 820 m 0
 -720 878 -671 910 -610 910 c 2
 -380 910 l 1
 -380 770 l 1
 -535 770 l 1
 -510 710 l 1
 -685 710 l 1
 -685 710 -720 764 -720 820 c 0
EndSplineSet
Colour: ffff00
EndChar

StartChar: uni0E4D.low.left
Encoding: 986701 986701 216
Width: 0
VWidth: 0
Flags: W
HStem: 670 90<-571.354 -498.646> 850 90<-571.354 -498.646>
VStem: -710 135<762.68 847.32> -495 135<762.68 847.32>
LayerCount: 2
Fore
SplineSet
-575 805 m 0
 -575 775 -557 760 -535 760 c 0
 -513 760 -495 775 -495 805 c 0
 -495 835 -513 850 -535 850 c 0
 -557 850 -575 835 -575 805 c 0
-710 805 m 0
 -710 884 -649 940 -535 940 c 0
 -421 940 -360 884 -360 805 c 0
 -360 726 -421 670 -535 670 c 0
 -649 670 -710 726 -710 805 c 0
EndSplineSet
Colour: ffff00
EndChar

StartChar: uni0E48.high.left
Encoding: 1044040 1044040 217
Width: 0
VWidth: 0
Flags: W
HStem: 960 210<-555 -375>
VStem: -555 180<960 1170>
LayerCount: 2
Fore
SplineSet
-555 960 m 1
 -555 1170 l 1
 -375 1170 l 1
 -375 960 l 1
 -555 960 l 1
EndSplineSet
Colour: ffff00
EndChar

StartChar: uni0E49.high.left
Encoding: 1044041 1044041 218
Width: 0
VWidth: 0
Flags: W
HStem: 960 110<-475 -310> 1080 90<-660 -600>
VStem: -670 360<962.209 1045>
LayerCount: 2
Fore
SplineSet
-670 1000 m 0
 -670 1017 -663 1029 -650 1040 c 2
 -600 1080 l 1
 -660 1080 l 1
 -660 1170 l 1
 -460 1170 l 2
 -434 1170 -420 1153 -420 1135 c 0
 -420 1121 -425 1113 -435 1105 c 2
 -475 1070 l 1
 -310 1070 l 1
 -310 960 l 1
 -630 960 l 2
 -655 960 -670 979 -670 1000 c 0
EndSplineSet
Colour: ffff00
EndChar

StartChar: uni0E4A.high.left
Encoding: 1044042 1044042 219
Width: 0
VWidth: 0
Flags: W
HStem: 960 210<-500 -350> 960 90<-350 -270> 1070 110<-635.5 -538.42>
VStem: -720 155<960.664 1069.76> -500 150<1050 1063.24 1108 1170>
LayerCount: 2
Fore
SplineSet
-720 1030 m 0x78
 -720 1119 -671 1180 -600 1180 c 0x78
 -557 1180 -525 1146 -500 1108 c 1
 -500 1170 l 1
 -350 1170 l 1x98
 -350 1050 l 1
 -270 1050 l 1
 -270 960 l 1x58
 -500 960 l 1x98
 -500 1026 l 1
 -514 1051 -527 1070 -540 1070 c 0
 -560 1070 -565 1036 -565 1020 c 0
 -565 994 -555 971 -550 960 c 1
 -710 960 l 1
 -716 977 -720 1002 -720 1030 c 0x78
EndSplineSet
Colour: ffff00
EndChar

StartChar: uni0E4B.high.left
Encoding: 1044043 1044043 220
Width: 0
VWidth: 0
Flags: W
HStem: 960 210<-545 -385> 1020 90<-625 -545 -385 -305>
VStem: -545 160<960 1020 1110 1170>
LayerCount: 2
Fore
SplineSet
-625 1020 m 1x60
 -625 1110 l 1
 -545 1110 l 1x60
 -545 1170 l 1
 -385 1170 l 1xa0
 -385 1110 l 1
 -305 1110 l 1
 -305 1020 l 1
 -385 1020 l 1x60
 -385 960 l 1
 -545 960 l 1xa0
 -545 1020 l 1
 -625 1020 l 1x60
EndSplineSet
Colour: ffff00
EndChar

StartChar: uni0E4C.high.left
Encoding: 1044044 1044044 221
Width: 0
VWidth: 0
Flags: W
HStem: 990 120<-415 -280>
VStem: -580 300<990.75 1090.53>
LayerCount: 2
Fore
SplineSet
-580 1030 m 0
 -580 1088 -541 1110 -480 1110 c 2
 -280 1110 l 1
 -280 990 l 1
 -415 990 l 1
 -385 930 l 1
 -535 930 l 1
 -535 930 -580 974 -580 1030 c 0
EndSplineSet
Colour: ffff00
EndChar

StartChar: uni0E4D.high.left
Encoding: 1044045 1044045 222
Width: 0
VWidth: 300
Flags: W
HStem: 920 75<-511.446 -448.554> 1075 75<-511.446 -448.554>
VStem: -630 115<996.734 1073.27> -445 115<996.734 1073.27>
LayerCount: 2
Fore
SplineSet
-515 1035 m 0
 -515 1011 -502 995 -480 995 c 0
 -458 995 -445 1011 -445 1035 c 0
 -445 1059 -458 1075 -480 1075 c 0
 -502 1075 -515 1059 -515 1035 c 0
-630 1035 m 0
 -630 1100 -575 1150 -480 1150 c 0
 -385 1150 -330 1100 -330 1035 c 0
 -330 970 -385 920 -480 920 c 0
 -575 920 -630 970 -630 1035 c 0
EndSplineSet
Colour: ffff00
EndChar

StartChar: a.alt
Encoding: 983137 983137 223
Width: 790
VWidth: 0
Flags: W
HStem: -10 190<231 422.41> 0 21G<490 740> 420 190<231 422.41> 580 20G<490 740>
VStem: 30 280<213.556 386.444> 470 270<191.988 408.012> 490 250<0 82 518 600>
LayerCount: 2
Fore
SplineSet
310 300 m 0xac
 310 220 352 180 400 180 c 0
 438 180 459 198 470 228 c 1
 470 372 l 1
 459 402 438 420 400 420 c 0
 352 420 310 380 310 300 c 0xac
30 300 m 0
 30 471 142 610 320 610 c 0xaa
 401 610 455 571 490 518 c 1
 490 600 l 1
 740 600 l 1
 740 0 l 1
 490 0 l 1
 490 82 l 1x5a
 455 29 401 -10 320 -10 c 0
 142 -10 30 129 30 300 c 0
EndSplineSet
Colour: ffff00
EndChar

StartChar: g.alt
Encoding: 983143 983143 224
Width: 790
VWidth: 0
Flags: W
HStem: -260 180<228.799 454.638> -10 190<231 421.513> 420 190<231 422.41> 580 20G<490 740>
VStem: 30 280<213.556 386.444> 470 270<191.988 408.012>
LayerCount: 2
Fore
SplineSet
310 300 m 0xec
 310 220 352 180 400 180 c 0
 438 180 459 198 470 228 c 1
 470 372 l 1
 459 402 438 420 400 420 c 0
 352 420 310 380 310 300 c 0xec
30 300 m 0
 30 471 142 610 320 610 c 0xec
 401 610 455 571 490 518 c 1
 490 600 l 1
 740 600 l 1xdc
 740 20 l 2
 740 -156 642 -260 410 -260 c 0
 306 -260 233 -239 170 -220 c 1
 220 -50 l 1
 254 -68 306 -80 370 -80 c 0
 428 -80 480 -59 480 0 c 2
 480 68 l 1
 445 23 394 -10 320 -10 c 0
 142 -10 30 129 30 300 c 0
EndSplineSet
Colour: ffff00
EndChar

StartChar: uni25CC
Encoding: 9676 9676 228
Width: 720
VWidth: 0
Flags: W
HStem: -20 60<330 390> 270 60<40 100 620 680> 560 60<330 390> 587 20G<217.174 273.364 446.636 502.826>
VStem: 40 60<270 330> 330 60<-20 40 560 620> 620 60<270 330>
CounterMasks: 1 0e
LayerCount: 2
Fore
SplineSet
620 270 m 1xce
 620 330 l 1
 680 330 l 1
 680 270 l 1
 620 270 l 1xce
589 427 m 1
 644 450 l 1
 667 395 l 1
 612 372 l 1
 589 427 l 1
589 173 m 1
 612 228 l 1
 667 205 l 1
 644 150 l 1
 589 173 l 1
523 505 m 1
 565 547 l 1
 607 505 l 1
 565 463 l 1
 523 505 l 1
523 95 m 1
 565 137 l 1
 607 95 l 1
 565 53 l 1
 523 95 l 1
432 552 m 1
 455 607 l 1xde
 510 584 l 1
 487 529 l 1
 432 552 l 1
432 48 m 1
 487 71 l 1
 510 16 l 1
 455 -7 l 1
 432 48 l 1
330 560 m 1xee
 330 620 l 1
 390 620 l 1
 390 560 l 1
 330 560 l 1xee
330 -20 m 1
 330 40 l 1
 390 40 l 1
 390 -20 l 1
 330 -20 l 1
210 584 m 1
 265 607 l 1xde
 288 552 l 1
 233 529 l 1
 210 584 l 1
210 16 m 1
 233 71 l 1
 288 48 l 1
 265 -7 l 1
 210 16 l 1
113 505 m 1
 155 547 l 1
 197 505 l 1
 155 463 l 1
 113 505 l 1
113 95 m 1
 155 137 l 1
 197 95 l 1
 155 53 l 1
 113 95 l 1
53 395 m 1
 76 450 l 1
 131 427 l 1
 108 372 l 1
 53 395 l 1
53 205 m 1
 108 228 l 1
 131 173 l 1
 76 150 l 1
 53 205 l 1
40 270 m 1
 40 330 l 1
 100 330 l 1
 100 270 l 1
 40 270 l 1
EndSplineSet
Colour: ffff00
EndChar

StartChar: uni0E0A.swap
Encoding: 60938 60938 229
Width: 770
VWidth: -360
Flags: W
HStem: -20 180<330.999 429.001> 490 170<597.159 730> 580 20G<50 304>
VStem: 50 330<421.878 565.391> 50 270<169.141 335.164> 440 270<168.809 400.657>
AnchorPoint: "th-vow-above" 650 660 basechar 0
LayerCount: 2
Fore
SplineSet
50 220 m 0xcc
 50 338 130 420 130 420 c 1
 50 420 l 1
 50 600 l 1xac
 260 600 l 2
 348 600 380 553 380 480 c 0xb4
 380 397 320 317 320 220 c 0xac
 320 178 346 160 380 160 c 0
 414 160 440 177 440 220 c 2
 440 370 l 2
 440 410 435 430 410 430 c 2
 400 430 l 1
 400 520 l 1
 429 545 575 660 730 660 c 1
 730 490 l 1
 653 490 606 480 574 467 c 1
 648 452 710 385 710 350 c 2
 710 220 l 2
 710 54 581 -20 380 -20 c 0xd4
 179 -20 50 60 50 220 c 0xcc
EndSplineSet
Colour: ffff00
EndChar

StartChar: uni0E0B.swap
Encoding: 60939 60939 230
Width: 780
VWidth: -360
Flags: W
HStem: -20 180<340.999 439.001> 450 160<157.194 273.498> 490 170<608.219 740>
VStem: 60 270<168.228 298.742> 190 220<386.035 516.5> 450 270<168.809 400.657>
AnchorPoint: "th-vow-above" 670 660 basechar 0
LayerCount: 2
Fore
SplineSet
20 450 m 1xcc
 20 610 l 1
 30 610 l 1
 130 550 l 1
 150 570 196 610 270 610 c 0
 357 610 410 553 410 480 c 0xcc
 410 397 330 317 330 220 c 0
 330 177 356 160 390 160 c 0
 424 160 450 177 450 220 c 2
 450 370 l 2
 450 410 445 430 420 430 c 2
 415 430 l 1
 415 520 l 1
 444 545 585 660 740 660 c 1
 740 490 l 1
 663 490 616 480 584 467 c 1
 658 452 720 385 720 350 c 2
 720 220 l 2
 720 54 591 -20 390 -20 c 0
 189 -20 60 54 60 220 c 0xb4
 60 333 190 369 190 425 c 0
 190 438 185 450 170 450 c 0
 141 450 118 419 110 400 c 1
 100 400 l 1
 20 450 l 1xcc
EndSplineSet
Colour: ffff00
EndChar

StartChar: uni0E28.swap
Encoding: 60968 60968 231
Width: 800
VWidth: 0
Flags: W
HStem: 0 21G<40 310 470 740> 165 175<329.086 419.578> 430 190<328.364 454.606> 510 170<679.27 780>
VStem: 40 270<0 149.397 290 414.524> 470 270<0 414.478>
AnchorPoint: "th-vow-above" 660 660 basechar 0
LayerCount: 2
Fore
SplineSet
40 0 m 1xec
 40 370 l 2
 40 536 176 620 390 620 c 0xec
 447 620 493 609 528 597 c 1
 592 636 684 680 780 680 c 1
 780 510 l 1xdc
 738 510 705 507 678 502 c 1
 710 473 740 425 740 370 c 2
 740 0 l 1
 470 0 l 1
 470 360 l 2
 470 408 434 430 390 430 c 0
 346 430 310 408 310 360 c 2
 310 290 l 1
 328 317 351 340 380 340 c 0
 402 340 410 335 420 330 c 1
 420 160 l 1
 412 162 401 165 385 165 c 0
 351 165 324 145 310 124 c 1
 310 0 l 1
 40 0 l 1xec
EndSplineSet
Colour: ffff00
EndChar

StartChar: uni0E2A.swap
Encoding: 60970 60970 232
Width: 760
VWidth: 0
Flags: W
HStem: -10 140<177 373.946> 0 21G<430 700> 230 140<177 379.413> 440 180<163.061 406.779> 510 170<637.59 740>
VStem: 30 270<138.996 221.004> 430 270<0 222.762 311 414.812>
AnchorPoint: "th-vow-above" 620 660 basechar 0
LayerCount: 2
Fore
SplineSet
30 180 m 0xa6
 30 288 104 370 250 370 c 0
 347 370 403 335 430 311 c 1
 430 360 l 2
 430 421 378 440 300 440 c 0
 222 440 144 416 100 400 c 1
 40 550 l 1
 40 550 168 620 370 620 c 0xb6
 420 620 461 611 493 599 c 1
 556 638 647 680 740 680 c 1
 740 510 l 1
 696 510 662 507 635 502 c 1
 662 479 700 435 700 370 c 2
 700 0 l 1
 430 0 l 1x6e
 430 208 l 1
 412 222 392 230 360 230 c 0
 328 230 300 215 300 180 c 0
 300 145 328 130 360 130 c 0
 371 130 381 132 390 135 c 1
 390 25 l 1
 358 6 313 -10 250 -10 c 0
 104 -10 30 72 30 180 c 0xa6
EndSplineSet
Colour: ffff00
EndChar

StartChar: uni0E2C.swap
Encoding: 60972 60972 233
Width: 1040
VWidth: -360
Flags: W
HStem: 0 21G<174.333 465.2 584.8 875.667> 510 170<853.434 1020> 580 20G<10 298.333 445.152 604.849>
VStem: 725 250<340.625 468.034>
AnchorPoint: "th-vow-below" 840 0 basechar 0
AnchorPoint: "th-vow-above" 840 660 basechar 0
LayerCount: 2
Fore
SplineSet
10 600 m 1xb0
 295 600 l 1
 350 270 l 1
 355 230 l 1
 365 230 l 1
 370 270 l 1
 450 600 l 1
 525 600 l 1
 600 600 l 1
 680 270 l 1
 685 230 l 1
 695 230 l 1
 700 270 l 1
 721 400 l 1
 721 400 725 429 725 445 c 0
 725 460 721 483 700 490 c 1
 700 600 l 1xb0
 731 618 880 680 1020 680 c 1
 1020 510 l 1
 850 510 l 1xd0
 850 505 l 1
 916 505 975 470 975 400 c 0
 975 367 955 300 955 300 c 1
 870 0 l 1
 590 0 l 1
 525 250 l 1
 460 0 l 1
 180 0 l 1
 10 600 l 1xb0
EndSplineSet
Colour: ffff00
EndChar

StartChar: uni0E2E.swap
Encoding: 60974 60974 234
Width: 750
VWidth: 0
Flags: W
HStem: -20 180<290.608 401.968> 230 110<275 320> 440 180<156.156 378.971> 510 170<626.834 730>
VStem: 430 270<186.975 390.882>
AnchorPoint: "th-vow-above" 610 660 basechar 0
LayerCount: 2
Fore
SplineSet
30 260 m 0xd8
 30 305 52 340 90 340 c 2
 320 340 l 1
 320 230 l 1
 275 230 l 1
 275 182 310 160 350 160 c 0
 408 160 430 210 430 300 c 0
 430 400 370 440 280 440 c 0
 208 440 144 416 100 400 c 1
 40 550 l 1
 40 550 158 620 360 620 c 0xe8
 414 620 453 610 482 599 c 1
 545 638 636 680 730 680 c 1
 730 510 l 1
 686 510 651 507 624 501 c 1
 659 472 700 413 700 300 c 0
 700 123 564 -20 350 -20 c 0
 168 -20 30 70 30 260 c 0xd8
EndSplineSet
Colour: ffff00
EndChar
